<?xml version="1.0" encoding="UTF-8"?>
<svg version="1.1" xmlns="http://www.w3.org/2000/svg" width="2319" height="2049">
<path d="M0 0 C0.75296356 0.00182281 1.50592712 0.00364563 2.28170776 0.00552368 C61.83515056 0.2458574 119.67134142 20.31004574 173.0625 45.3125 C174.09342773 45.79444824 175.12435547 46.27639648 176.18652344 46.77294922 C209.1163525 62.23560966 240.81407771 80.09502647 271.0625 100.3125 C272.70798828 101.39724609 272.70798828 101.39724609 274.38671875 102.50390625 C277.29058347 104.42301578 280.1793271 106.36245439 283.0625 108.3125 C283.63822754 108.70050781 284.21395508 109.08851563 284.80712891 109.48828125 C300.64722466 120.18355364 315.99679369 131.55482205 331.0625 143.3125 C331.63307129 143.7569043 332.20364258 144.20130859 332.79150391 144.65917969 C343.45020191 152.9663951 353.92839678 161.46862312 364.22241211 170.22436523 C367.67389859 173.15533661 371.16468263 176.02964751 374.6875 178.875 C379.38749563 182.6963008 383.8474281 186.73199151 388.30078125 190.8359375 C391.04902914 193.30042005 393.87170868 195.62692683 396.75 197.9375 C400.82807569 201.22776561 404.54479983 204.68436248 408.1953125 208.4375 C409.9454456 210.19495583 411.743658 211.82261416 413.625 213.4375 C418.84719689 217.93693669 423.847825 222.67082432 428.87158203 227.38891602 C431.36198727 229.72501452 433.86007643 232.05163947 436.37475586 234.36157227 C448.90716622 245.92081527 460.91435438 258.01121504 472.95629883 270.07592773 C476.03220341 273.15757994 479.11264855 276.23464846 482.19439793 279.31045437 C484.59928541 281.71171231 487.00176677 284.11536629 489.40354729 286.51973152 C490.53857295 287.65541718 491.67432215 288.79038025 492.81085396 289.92455864 C498.26806425 295.37292428 503.67974049 300.81795006 508.67308044 306.70289612 C510.84018682 309.21342853 513.18962345 311.49545584 515.5625 313.8125 C519.37119334 317.56399794 522.98216876 321.41839769 526.453125 325.484375 C528.08836434 327.34187988 529.79731793 329.07856009 531.5625 330.8125 C534.5540363 333.7577072 537.31349229 336.84195743 540.0546875 340.01953125 C542.4732269 342.78155971 544.95145021 345.4864428 547.4375 348.1875 C555.71682433 357.19027418 563.90377758 366.26925496 571.84765625 375.5703125 C572.87757479 376.77606676 573.90752353 377.98179523 574.9375 379.1875 C575.45715332 379.79601807 575.97680664 380.40453613 576.51220703 381.03149414 C579.54142533 384.56873858 582.61398583 388.05642577 585.75 391.5 C589.60101005 395.73958043 593.21093955 400.14182112 596.8125 404.59375 C598.99751569 407.23397729 601.25421391 409.7797972 603.5625 412.3125 C607.4234219 416.55417026 611.06799703 420.93283927 614.67578125 425.390625 C617.28640563 428.58661032 619.94974298 431.73318184 622.625 434.875 C626.53920203 439.47911049 630.36511089 444.14018525 634.12109375 448.875 C636.14304699 451.41362942 638.19222269 453.9278333 640.25 456.4375 C649.97385375 468.30361413 659.63571627 480.20843463 669.0625 492.3125 C669.59456055 492.99538086 670.12662109 493.67826172 670.67480469 494.38183594 C673.60632112 498.14561208 676.53485711 501.91168387 679.4609375 505.6796875 C681.81479878 508.71007725 684.17421527 511.73598908 686.5390625 514.7578125 C693.22748176 523.3126795 699.81576248 531.93378616 706.31176758 540.63574219 C710.22504328 545.87499553 714.17309529 551.08548281 718.1496582 556.27685547 C725.42505688 565.77575266 732.52703753 575.37805217 739.48583984 585.11083984 C742.16599913 588.85343453 744.86549711 592.58203593 747.5625 596.3125 C748.6497638 597.81899294 749.73700342 599.32550333 750.82421875 600.83203125 C752.94636615 603.77092826 755.0742381 606.70553962 757.20703125 609.63671875 C765.29233295 620.76292481 773.16654226 632.028004 780.99658203 643.33496094 C783.06323004 646.31355219 785.13769031 649.28653959 787.21484375 652.2578125 C794.72520071 663.00586875 802.12957069 673.80968429 809.36035156 684.74755859 C811.31179718 687.6881621 813.27638903 690.61975364 815.2421875 693.55078125 C824.73018612 707.70513811 834.04228844 721.95769606 843.17626953 736.34423828 C845.01755422 739.24177119 846.86512357 742.13519018 848.71484375 745.02734375 C856.61286286 757.38526774 864.39596736 769.80967174 872.0625 782.3125 C872.71621582 783.37742676 873.36993164 784.44235352 874.04345703 785.53955078 C901.69622567 830.6476845 927.611213 876.87694221 951.0625 924.3125 C953.84589965 920.91062628 955.73820987 917.18647507 957.65234375 913.2578125 C958.35496665 911.83515806 959.05768871 910.41255259 959.76049805 908.98999023 C960.12573578 908.24707733 960.49097351 907.50416443 960.86727905 906.73873901 C967.47183797 893.32089883 974.25965637 880.04126823 981.56591797 866.98925781 C983.1697617 864.12065379 984.75909677 861.24428123 986.34765625 858.3671875 C994.3554041 843.91223441 1002.70065476 829.67433641 1011.17236328 815.48730469 C1012.9260238 812.54173489 1014.66759313 809.58954876 1016.40234375 806.6328125 C1028.58834571 785.86351275 1041.26527984 765.4042657 1054.25878906 745.13134766 C1056.15491903 742.16806712 1058.04287338 739.19968868 1059.9296875 736.23046875 C1068.37315442 722.96053637 1076.99415276 709.82344876 1085.75634766 696.76220703 C1087.89378462 693.56987651 1090.01702137 690.36825057 1092.13806152 687.16500854 C1094.07080008 684.2461462 1096.00631158 681.32912654 1097.9418335 678.41210938 C1098.87765189 677.0003113 1099.81231534 675.5877468 1100.7456665 674.17431641 C1106.05533595 666.13596948 1111.50297511 658.24321562 1117.23728943 650.50115967 C1120.75897421 645.74611344 1124.13752906 640.91180485 1127.4375 636 C1133.31830637 627.32809222 1139.41533688 618.828702 1145.57958984 610.35693359 C1147.75758832 607.35420735 1149.91095642 604.33420786 1152.0625 601.3125 C1153.28956098 599.59357074 1154.5172456 597.87508858 1155.74511719 596.15673828 C1156.66305223 594.87169726 1157.58031897 593.58617871 1158.49707031 592.30029297 C1165.51263523 582.47079267 1172.69761001 572.79165628 1180.04492188 563.20751953 C1184.49482564 557.3955527 1188.86670425 551.53343698 1193.1875 545.625 C1199.39919951 537.14419855 1205.81143076 528.83461494 1212.29931641 520.56396484 C1214.69646581 517.50296902 1217.08077824 514.43208518 1219.46508789 511.36108398 C1222.32717622 507.67532805 1225.19441254 503.99358863 1228.0625 500.3125 C1228.79098145 499.37712402 1228.79098145 499.37712402 1229.53417969 498.42285156 C1235.94864949 490.19491374 1242.48200127 482.0704875 1249.07421875 473.984375 C1251.41971533 471.10637546 1253.74851547 468.21594164 1256.0625 465.3125 C1263.97543761 455.40050447 1271.95704113 445.54898864 1280.18115234 435.89306641 C1282.99541776 432.58597085 1285.76282518 429.24609861 1288.5 425.875 C1293.39822239 419.86116823 1298.45163246 413.98616596 1303.51416016 408.11083984 C1305.5363552 405.7621346 1307.55325805 403.40892313 1309.56958008 401.05517578 C1310.56513564 399.8930702 1311.56106694 398.7312864 1312.55737305 397.56982422 C1315.08768569 394.61992444 1317.61384062 391.6666233 1320.1328125 388.70703125 C1325.60025005 382.29104511 1331.13812482 375.96723531 1336.8359375 369.75390625 C1338.75383207 367.65095167 1340.63626045 365.52580844 1342.5 363.375 C1345.93086233 359.42504739 1349.47380271 355.580629 1353.01757812 351.73242188 C1355.54975408 348.9779424 1358.05277735 346.20516213 1360.5 343.375 C1365.54884389 337.56226484 1370.8174353 331.94755969 1376.0625 326.3125 C1376.68318359 325.64524902 1377.30386719 324.97799805 1377.94335938 324.29052734 C1390.78998669 310.4936104 1390.78998669 310.4936104 1397.2563324 304.15110779 C1398.91890696 302.45867208 1400.44809553 300.71931955 1401.97680664 298.90649414 C1407.32974049 292.75535051 1413.16542316 287.06572214 1418.93359375 281.30859375 C1420.1825238 280.05898855 1421.43130551 278.80923507 1422.6799469 277.55934143 C1425.28639431 274.95142696 1427.89462294 272.34531093 1430.50415039 269.74047852 C1433.83038521 266.41994035 1437.15210934 263.09493188 1440.47250271 259.76855373 C1443.04705823 257.19036574 1445.62401415 254.61458756 1448.20167732 252.03950691 C1449.42667868 250.8151674 1450.65095219 249.59009916 1451.87444878 248.36425591 C1463.3980573 236.82339322 1463.3980573 236.82339322 1469.54994202 231.60487366 C1471.49623447 229.94190462 1473.28507235 228.15340721 1475.0625 226.3125 C1478.12706293 223.20660386 1481.30007298 220.32464209 1484.609375 217.484375 C1487.93361273 214.54126007 1491.1456188 211.48391912 1494.375 208.4375 C1499.52712234 203.58933956 1504.78877101 199.00132225 1510.3203125 194.5859375 C1513.51293731 191.93906052 1516.53667596 189.14660882 1519.5625 186.3125 C1524.3145647 181.86780704 1529.18609556 177.65868953 1534.26171875 173.58203125 C1536.78958422 171.53364932 1539.27220191 169.44499047 1541.74487305 167.33105469 C1548.39918501 161.64245012 1555.20828658 156.18667992 1562.12451172 150.82080078 C1564.19452906 149.2097442 1566.2558542 147.58798605 1568.31640625 145.96484375 C1578.705767 137.80079793 1589.29276426 129.96617954 1600.0625 122.3125 C1600.78856445 121.79413574 1601.51462891 121.27577148 1602.26269531 120.74169922 C1612.07124045 113.73967069 1621.96470239 106.89112063 1632.0625 100.3125 C1632.83062012 99.81057129 1633.59874023 99.30864258 1634.39013672 98.79150391 C1677.8728298 70.47341073 1723.64782867 46.08047651 1772.0625 27.3125 C1773.0834375 26.91579102 1774.104375 26.51908203 1775.15625 26.11035156 C1815.51594896 10.59839252 1858.56109304 0.09692757 1901.9375 0.0625 C1902.70707031 0.06182526 1903.47664063 0.06115051 1904.26953125 0.06045532 C1942.16189674 0.11298542 1980.16820545 9.63386081 2009.0625 35.3125 C2010.26132812 36.33150391 2010.26132812 36.33150391 2011.484375 37.37109375 C2025.8548814 49.74033836 2036.37612726 65.59845696 2045.0625 82.3125 C2045.65546875 83.43269531 2046.2484375 84.55289063 2046.859375 85.70703125 C2063.03012605 118.15979999 2069.39569173 155.46681825 2072.0625 191.3125 C2072.12034668 192.03904785 2072.17819336 192.7655957 2072.23779297 193.51416016 C2074.29505575 220.14869281 2073.24469643 247.13908431 2071.68871307 273.76774216 C2071.5583063 276.00959478 2071.43109644 278.25161177 2071.30450439 280.49368286 C2064.78736474 395.45983073 2055.16573434 510.31604632 2017.0625 858.3125 C2016.93957581 859.02104126 2016.81665161 859.72958252 2016.69000244 860.45959473 C2004.44991338 930.41294764 1970.67305236 1002.49398859 1922.328125 1054.8359375 C1921.09085012 1056.18840694 1919.86103479 1057.54849705 1918.67089844 1058.94262695 C1913.54549222 1064.93860535 1908.03195345 1070.52917906 1902.45751953 1076.1027832 C1900.82422552 1077.73825882 1899.1991153 1079.38157708 1897.57421875 1081.02539062 C1891.05830285 1087.57580709 1884.30376535 1093.55832007 1877.0625 1099.3125 C1875.96055931 1100.24714688 1874.86421976 1101.18850179 1873.77734375 1102.140625 C1854.95710614 1118.55208395 1833.73145797 1132.00286154 1812.0625 1144.3125 C1811.2365332 1144.78300781 1810.41056641 1145.25351563 1809.55957031 1145.73828125 C1736.18317769 1187.2917408 1651.77586911 1206.69317552 1538.21875 1213.515625 C1536.64936808 1213.52247941 1535.07998637 1213.52938275 1533.51060486 1213.53633118 C1528.52790129 1213.55521508 1523.54523442 1213.55972914 1518.5625 1213.5625 C1517.71693165 1213.563531 1516.8713633 1213.564562 1516.00017166 1213.56562424 C1489.89816988 1213.59554223 1464.04702178 1212.99261473 1438.0625 1210.3125 C1435.88703021 1210.10990841 1433.71127948 1209.91029154 1431.53515625 1209.71484375 C1430.22623413 1209.59677368 1430.22623413 1209.59677368 1428.89086914 1209.47631836 C1428.28750732 1209.4222583 1427.68414551 1209.36819824 1427.0625 1209.3125 C1428.1870459 1209.56829834 1429.3115918 1209.82409668 1430.47021484 1210.08764648 C1502.61664603 1226.53327876 1572.70938312 1247.06036853 1639.0625 1280.3125 C1640.15820312 1280.8590625 1641.25390625 1281.405625 1642.3828125 1281.96875 C1676.76269978 1299.20011519 1709.28909412 1320.24817338 1737.75 1346.21875 C1739.71905591 1348.00154386 1741.72140202 1349.72368447 1743.75 1351.4375 C1754.1202028 1360.50088862 1763.5835334 1370.47249016 1772.0625 1381.3125 C1773.00110318 1382.45283382 1773.94269595 1383.59071124 1774.88671875 1384.7265625 C1813.89707621 1431.94165458 1832.64476952 1492.12886524 1827.56640625 1553.140625 C1820.30586691 1626.32554935 1783.59582447 1692.63398274 1737.0625 1748.3125 C1736.56975586 1748.90434082 1736.07701172 1749.49618164 1735.56933594 1750.10595703 C1729.5562819 1757.31798251 1723.37967452 1764.36475452 1717.0625 1771.3125 C1716.40378906 1772.05242187 1715.74507812 1772.79234375 1715.06640625 1773.5546875 C1686.88930686 1805.19400137 1686.88930686 1805.19400137 1670.94921875 1818.64453125 C1668.54748902 1820.76779956 1666.31545437 1823.0322784 1664.0625 1825.3125 C1660.5720856 1828.84004647 1657.01605686 1832.18634474 1653.24609375 1835.41015625 C1651.05459941 1837.31938299 1648.91921069 1839.28256541 1646.7890625 1841.25976562 C1641.66093563 1846.01694931 1636.42124622 1850.55043407 1630.96875 1854.9375 C1628.26077667 1857.15046745 1625.61026383 1859.41426598 1622.96875 1861.70532227 C1616.41431236 1867.38924865 1609.72009899 1872.80590132 1602.78271484 1878.01757812 C1600.98082656 1879.37398111 1599.18743299 1880.74112023 1597.39453125 1882.109375 C1580.84876443 1894.6884461 1563.82242311 1906.51084464 1546.0625 1917.3125 C1545.17675293 1917.85342285 1544.29100586 1918.3943457 1543.37841797 1918.95166016 C1472.82267391 1961.78422269 1390.52404252 1987.89376245 1308.04101562 1968.60595703 C1263.02804226 1957.55201212 1222.75932495 1934.75971382 1188.0625 1904.3125 C1187.35351562 1903.70277344 1186.64453125 1903.09304688 1185.9140625 1902.46484375 C1183.94612404 1900.76599075 1182.00073726 1899.04516664 1180.0625 1897.3125 C1179.19625 1896.5390625 1178.33 1895.765625 1177.4375 1894.96875 C1166.41995036 1885.00607213 1155.64624689 1874.67550792 1146.0625 1863.3125 C1145.09295145 1862.20414708 1144.12138453 1861.09755833 1143.1484375 1859.9921875 C1135.82108759 1851.65039917 1128.80200865 1843.13517255 1122.0625 1834.3125 C1121.5792627 1833.68230957 1121.09602539 1833.05211914 1120.59814453 1832.40283203 C1102.82245222 1809.16659512 1086.76420129 1784.59730671 1072.0625 1759.3125 C1071.55009766 1758.43190918 1071.03769531 1757.55131836 1070.50976562 1756.64404297 C1061.52259785 1741.12653157 1053.19940408 1725.28959452 1045.0625 1709.3125 C1044.67255859 1708.54921387 1044.28261719 1707.78592773 1043.88085938 1706.99951172 C1041.56519062 1702.45783441 1039.30544237 1697.89045311 1037.0625 1693.3125 C1036.60584961 1692.38663086 1036.14919922 1691.46076172 1035.67871094 1690.50683594 C1018.50629076 1655.62501499 1003.76105187 1619.68988481 990.0625 1583.3125 C989.66160156 1582.25015137 989.26070312 1581.18780273 988.84765625 1580.09326172 C981.38558938 1560.2371309 974.47442904 1540.19382772 967.60742188 1520.12548828 C963.01841245 1506.74862582 958.19299127 1493.49140053 953.0625 1480.3125 C952.4025 1480.9725 951.7425 1481.6325 951.0625 1482.3125 C950.7325 1481.6525 950.4025 1480.9925 950.0625 1480.3125 C944.67932245 1494.14245208 939.74156054 1508.08544228 935.00344849 1522.14682007 C916.02328996 1578.438475 894.29768998 1633.52796305 869.0625 1687.3125 C868.62309082 1688.25448242 868.18368164 1689.19646484 867.73095703 1690.16699219 C862.25371559 1701.90127166 856.51980643 1713.46023284 850.38085938 1724.86279297 C849.48820119 1726.52148412 848.59897606 1728.18202663 847.71289062 1729.84423828 C836.14078495 1751.54805706 823.77088256 1772.88191257 810.0625 1793.3125 C809.50240234 1794.15055176 808.94230469 1794.98860352 808.36523438 1795.85205078 C795.48320401 1815.08169815 782.00153947 1833.62802643 767.0625 1851.3125 C766.54977539 1851.92432129 766.03705078 1852.53614258 765.50878906 1853.16650391 C751.24093377 1870.18674638 736.06360988 1886.97458766 719.0625 1901.3125 C718.09699219 1902.16714844 717.13148438 1903.02179688 716.13671875 1903.90234375 C660.86451421 1952.65169064 591.3009866 1979.16794146 517.46044922 1974.55859375 C478.59091495 1971.74349887 440.13896857 1960.1049302 405.0625 1943.3125 C403.98129883 1942.79993652 402.90009766 1942.28737305 401.78613281 1941.75927734 C363.92804527 1923.69428122 328.77126047 1900.52065147 296.0625 1874.3125 C295.17175781 1873.60480469 294.28101563 1872.89710937 293.36328125 1872.16796875 C290.92229586 1870.22514364 288.49053299 1868.27148116 286.0625 1866.3125 C285.2271875 1865.64089844 284.391875 1864.96929688 283.53125 1864.27734375 C272.0178063 1854.94806805 260.89841807 1845.19066548 250.05859375 1835.08984375 C247.34395493 1832.5626009 244.58441632 1830.08940018 241.8125 1827.625 C237.87786978 1824.1042063 234.13547538 1820.4391663 230.4609375 1816.6484375 C228.47443137 1814.713697 226.45489249 1812.90544282 224.35546875 1811.09765625 C219.70025352 1807.0554824 215.34689341 1802.744015 211 1798.375 C210.23623047 1797.61509766 209.47246094 1796.85519531 208.68554688 1796.07226562 C204.47434586 1791.85385982 200.44585043 1787.54185197 196.55688477 1783.02514648 C194.81180723 1781.0251924 192.9716258 1779.15579388 191.0625 1777.3125 C187.18229334 1773.47672318 183.60683763 1769.45780432 180.0625 1765.3125 C179.16846206 1764.28212384 178.27388818 1763.25221256 177.37890625 1762.22265625 C116.94041445 1692.49903322 68.96664932 1606.84424375 75.375 1511.90234375 C75.7629844 1507.34399334 76.35277858 1502.83118827 77.0625 1498.3125 C77.19140625 1497.48524414 77.3203125 1496.65798828 77.453125 1495.80566406 C84.38133707 1452.93735185 103.71677478 1414.72225973 131.0625 1381.3125 C131.51141602 1380.75916992 131.96033203 1380.20583984 132.42285156 1379.63574219 C143.44069535 1366.12923605 155.78974559 1353.60723062 169.0625 1342.3125 C169.69929688 1341.76891846 170.33609375 1341.22533691 170.9921875 1340.6652832 C199.97002852 1316.10933804 232.16536439 1296.32968549 266.0625 1279.3125 C267.15916992 1278.75949219 268.25583984 1278.20648437 269.38574219 1277.63671875 C334.64151044 1244.90724767 405.00157794 1224.93500185 476.0625 1209.3125 C475.09127197 1209.39814209 474.12004395 1209.48378418 473.11938477 1209.57202148 C469.42737796 1209.89691394 465.735092 1210.21854041 462.04272461 1210.53930664 C460.46126962 1210.67712303 458.87988599 1210.81576145 457.29858398 1210.95532227 C454.99221993 1211.15871699 452.68559302 1211.35889577 450.37890625 1211.55859375 C449.36214561 1211.64928383 449.36214561 1211.64928383 448.32484436 1211.74180603 C434.60105399 1212.9188084 420.91806629 1213.47745281 407.1484375 1213.515625 C405.57449315 1213.52260554 404.00054906 1213.52964649 402.42660522 1213.53674316 C397.43023319 1213.55599959 392.43390511 1213.56091817 387.4375 1213.5625 C386.16193993 1213.56338371 386.16193993 1213.56338371 384.86061096 1213.56428528 C359.46744514 1213.57670701 334.31607484 1213.20825157 309.0625 1210.3125 C307.7155079 1210.17020032 306.36833694 1210.02958386 305.02099609 1209.890625 C227.71310397 1201.87298316 151.26694527 1179.73519497 84.0625 1140.3125 C82.85400391 1139.60673828 82.85400391 1139.60673828 81.62109375 1138.88671875 C60.01042076 1126.1982187 38.75561584 1111.5989893 20.3984375 1094.47265625 C19.10693196 1093.27833758 17.80572615 1092.09341881 16.4675293 1090.95166016 C10.30092856 1085.68762626 4.57409508 1080.01021498 -1.1550293 1074.28027344 C-2.86293056 1072.57455402 -4.57868045 1070.87700973 -6.29492188 1069.1796875 C-12.97556481 1062.53277909 -19.08925791 1055.71225316 -24.9375 1048.3125 C-25.80049676 1047.28462114 -26.66888541 1046.26119602 -27.546875 1045.24609375 C-90.43434817 971.91562778 -112.38845697 880.99955733 -167.9375 284.3125 C-168.06865863 282.1451807 -168.19984194 279.9778629 -168.33105469 277.81054688 C-172.95454034 200.68705498 -172.68633763 111.35111268 -119.9375 49.3125 C-119.28007813 48.53261719 -118.62265625 47.75273438 -117.9453125 46.94921875 C-98.67444259 24.64149969 -72.60176607 11.43241305 -44.3125 4.5 C-43.5272998 4.30510986 -42.74209961 4.11021973 -41.93310547 3.90942383 C-28.12604558 0.73533883 -14.11718852 -0.07199125 0 0 Z " fill="#FFFFFF" transform="translate(207.9375,36.6875)"/>
</svg>
