<?xml version="1.0" encoding="UTF-8"?>
<svg version="1.1" xmlns="http://www.w3.org/2000/svg" width="512" height="512">
<path d="M0 0 C2.22120419 -0.00407455 4.44240635 -0.00942134 6.66360474 -0.01593018 C12.64707113 -0.02950454 18.63038081 -0.02434624 24.61384964 -0.01479292 C30.90524945 -0.00714476 37.19663672 -0.01425615 43.48803711 -0.01895142 C54.72354992 -0.02474166 65.95899876 -0.01547694 77.19449651 -0.0001734 C87.34617064 0.01322666 97.49774179 0.0108976 107.64941406 -0.00292969 C119.48713284 -0.01904634 131.32480191 -0.02492739 143.16253376 -0.0160929 C149.41094239 -0.01143978 155.65928037 -0.01072604 161.90768433 -0.02070236 C167.7847886 -0.0294321 173.66170033 -0.02324136 179.53878403 -0.00601959 C181.68280596 -0.00208663 183.82684438 -0.00313331 185.97085953 -0.00980759 C202.23365735 -0.05572714 217.3133275 1.53585131 232.97265625 6.13818359 C233.85268311 6.39494873 234.73270996 6.65171387 235.6394043 6.91625977 C243.89542652 9.40526819 251.7043811 12.527437 259.41015625 16.38818359 C260.05758789 16.71125488 260.70501953 17.03432617 261.37207031 17.3671875 C297.02852755 35.51142608 326.61894799 68.57948609 339.19091797 106.75927734 C340.02292721 109.39840866 340.81880337 112.04539365 341.59765625 114.70068359 C341.9548877 115.90785034 341.9548877 115.90785034 342.31933594 117.1394043 C346.79841421 133.13813164 347.84981713 148.44168641 347.79833984 164.97802734 C347.80241439 167.19923153 347.80776119 169.42043369 347.81427002 171.64163208 C347.82784438 177.62509847 347.82268609 183.60840816 347.81313276 189.59187698 C347.8054846 195.88327679 347.81259599 202.17466406 347.81729126 208.46606445 C347.82308151 219.70157727 347.81381679 230.93702611 347.79851325 242.17252386 C347.78511318 252.32419798 347.78744224 262.47576913 347.80126953 272.62744141 C347.81738618 284.46516019 347.82326723 296.30282925 347.81443274 308.1405611 C347.80977962 314.38896973 347.80906588 320.63730771 347.81904221 326.88571167 C347.82777195 332.76281595 347.8215812 338.63972767 347.80435944 344.51681137 C347.80042647 346.6608333 347.80147316 348.80487172 347.80814743 350.94888687 C347.85406698 367.21168469 346.26248854 382.29135485 341.66015625 397.95068359 C341.40339111 398.83071045 341.14662598 399.7107373 340.88208008 400.61743164 C338.39307165 408.87345387 335.27090285 416.68240845 331.41015625 424.38818359 C331.08708496 425.03561523 330.76401367 425.68304688 330.43115234 426.35009766 C312.28691376 462.00655489 279.21885375 491.59697533 241.0390625 504.16894531 C238.39993119 505.00095456 235.75294619 505.79683071 233.09765625 506.57568359 C232.29287842 506.81383789 231.48810059 507.05199219 230.65893555 507.29736328 C214.66020821 511.77644155 199.35665343 512.82784447 182.8203125 512.77636719 C180.59910831 512.78044173 178.37790615 512.78578853 176.15670776 512.79229736 C170.17324137 512.80587172 164.18993169 512.80071343 158.20646286 512.79116011 C151.91506305 512.78351195 145.62367578 512.79062334 139.33227539 512.7953186 C128.09676258 512.80110885 116.86131374 512.79184413 105.62581599 512.77654059 C95.47414186 512.76314052 85.32257071 512.76546958 75.17089844 512.77929688 C63.33317966 512.79541353 51.49551059 512.80129458 39.65777874 512.79246008 C33.40937011 512.78780697 27.16103213 512.78709323 20.91262817 512.79706955 C15.0355239 512.80579929 9.15861217 512.79960855 3.28152847 512.78238678 C1.13750654 512.77845381 -1.00653188 512.7795005 -3.15054703 512.78617477 C-19.41334485 512.83209433 -34.493015 511.24051588 -50.15234375 506.63818359 C-51.03237061 506.38141846 -51.91239746 506.12465332 -52.8190918 505.86010742 C-61.07511402 503.371099 -68.8840686 500.24893019 -76.58984375 496.38818359 C-77.56099121 495.90357666 -77.56099121 495.90357666 -78.55175781 495.40917969 C-114.20821505 477.26494111 -143.79863549 444.1968811 -156.37060547 406.01708984 C-157.20261471 403.37795853 -157.99849087 400.73097354 -158.77734375 398.07568359 C-159.01549805 397.27090576 -159.25365234 396.46612793 -159.49902344 395.63696289 C-163.97810171 379.63823555 -165.02950463 364.33468077 -164.97802734 347.79833984 C-164.98210189 345.57713565 -164.98744869 343.3559335 -164.99395752 341.13473511 C-165.00753188 335.15126871 -165.00237359 329.16795903 -164.99282026 323.1844902 C-164.9851721 316.8930904 -164.99228349 310.60170312 -164.99697876 304.31030273 C-165.00276901 293.07478992 -164.99350429 281.83934108 -164.97820075 270.60384333 C-164.96480068 260.4521692 -164.96712974 250.30059805 -164.98095703 240.14892578 C-164.99707368 228.311207 -165.00295473 216.47353794 -164.99412024 204.63580608 C-164.98946712 198.38739746 -164.98875338 192.13905948 -164.99872971 185.89065552 C-165.00745945 180.01355124 -165.0012687 174.13663951 -164.98404694 168.25955582 C-164.98011397 166.11553389 -164.98116066 163.97149547 -164.98783493 161.82748032 C-165.03375448 145.56468249 -163.44217604 130.48501234 -158.83984375 114.82568359 C-158.58307861 113.94565674 -158.32631348 113.06562988 -158.06176758 112.15893555 C-155.57275915 103.90291332 -152.45059035 96.09395874 -148.58984375 88.38818359 C-148.10523682 87.41703613 -148.10523682 87.41703613 -147.61083984 86.42626953 C-129.46660126 50.76981229 -96.39854125 21.17939185 -58.21875 8.60742188 C-55.57961869 7.77541263 -52.93263369 6.97953647 -50.27734375 6.20068359 C-49.47256592 5.9625293 -48.66778809 5.724375 -47.83862305 5.47900391 C-31.83989571 0.99992563 -16.53634093 -0.05147728 0 0 Z M-88.27734375 86.13818359 C-111.69146685 113.29684476 -116.74638933 144.56848324 -116.73510742 179.28515625 C-116.73810647 181.14637315 -116.7415107 183.00758944 -116.74528503 184.86880493 C-116.75405386 189.88569106 -116.75646014 194.90256009 -116.75710082 199.91945314 C-116.75781544 203.06518382 -116.75995751 206.21091025 -116.76259804 209.35663986 C-116.77182829 220.36341372 -116.77593589 231.37017553 -116.77514648 242.37695312 C-116.77454649 252.58449847 -116.7850889 262.79199085 -116.80089015 272.99952281 C-116.81403071 281.80684136 -116.81932766 290.61414274 -116.81869107 299.421471 C-116.81843798 304.66229266 -116.821184 309.90306717 -116.83186913 315.14387894 C-116.84166045 320.08030189 -116.84155501 325.01663369 -116.83435249 329.95306015 C-116.83332017 331.74751165 -116.83558724 333.54196918 -116.84171295 335.33641052 C-116.96479573 373.94395752 -108.58538062 405.69945892 -81.1953125 433.84912109 C-54.34768541 459.22747506 -21.20572709 464.54498791 14.30712891 464.53344727 C16.16834581 464.53644632 18.0295621 464.53985054 19.89077759 464.54362488 C24.90766372 464.55239371 29.92453275 464.55479998 34.9414258 464.55544066 C38.08715647 464.55615528 41.23288291 464.55829735 44.37861252 464.56093788 C55.38538637 464.57016814 66.39214818 464.57427573 77.39892578 464.57348633 C87.60647113 464.57288634 97.8139635 464.58342874 108.02149546 464.59922999 C116.82881402 464.61237055 125.63611539 464.6176675 134.44344366 464.61703092 C139.68426532 464.61677782 144.92503983 464.61952385 150.16585159 464.63020897 C155.10227455 464.64000029 160.03860634 464.63989485 164.97503281 464.63269234 C166.76948431 464.63166001 168.56394183 464.63392709 170.35838318 464.6400528 C208.96593018 464.76313558 240.72143157 456.38372046 268.87109375 428.99365234 C294.24944771 402.14602526 299.56696056 369.00406694 299.55541992 333.49121094 C299.55841897 331.62999403 299.5618232 329.76877775 299.56559753 327.90756226 C299.57436636 322.89067613 299.57677264 317.8738071 299.57741332 312.85691404 C299.57812794 309.71118337 299.58027001 306.56545694 299.58291054 303.41972733 C299.59214079 292.41295347 299.59624839 281.40619166 299.59545898 270.39941406 C299.59485899 260.19186871 299.6054014 249.98437634 299.62120265 239.77684438 C299.63434321 230.96952583 299.63964016 222.16222445 299.63900357 213.35489619 C299.63875048 208.11407453 299.6414965 202.87330001 299.65218163 197.63248825 C299.66197295 192.69606529 299.66186751 187.7597335 299.65466499 182.82330704 C299.65363267 181.02885553 299.65589974 179.23439801 299.66202545 177.43995667 C299.78510823 138.83240966 291.40569312 107.07690827 264.015625 78.92724609 C237.16799791 53.54889213 204.02603959 48.23137928 168.51318359 48.24291992 C166.65196669 48.23992087 164.7907504 48.23651665 162.92953491 48.23274231 C157.91264878 48.22397348 152.89577975 48.22156721 147.8788867 48.22092652 C144.73315603 48.2202119 141.58742959 48.21806983 138.44169998 48.21542931 C127.43492613 48.20619905 116.42816432 48.20209146 105.42138672 48.20288086 C95.21384137 48.20348085 85.006349 48.19293844 74.79881704 48.1771372 C65.99149848 48.16399664 57.18419711 48.15869969 48.37686884 48.15933627 C43.13604718 48.15958937 37.89527267 48.15684334 32.65446091 48.14615822 C27.71803795 48.13636689 22.78170616 48.13647233 17.84527969 48.14367485 C16.05082819 48.14470718 14.25637067 48.1424401 12.46192932 48.13631439 C-26.88615675 48.01087073 -60.56889532 56.82556183 -88.27734375 86.13818359 Z " fill="#FFFFFF" transform="translate(164.58984375,-0.38818359375)"/>
<path d="M0 0 C1.01247803 0.27408691 1.01247803 0.27408691 2.04541016 0.55371094 C32.31829414 8.88268602 61.01342228 28.59651721 77 56 C77.40943848 56.69963867 77.81887695 57.39927734 78.24072266 58.12011719 C84.66997596 69.30121891 89.58876157 80.56227976 93 93 C93.50853516 94.76150391 93.50853516 94.76150391 94.02734375 96.55859375 C98.38980524 114.9130976 98.21629674 138.90223765 93 157 C92.81727539 157.67498535 92.63455078 158.3499707 92.44628906 159.04541016 C84.11731398 189.31829414 64.40348279 218.01342228 37 234 C36.30036133 234.40943848 35.60072266 234.81887695 34.87988281 235.24072266 C23.69878109 241.66997596 12.43772024 246.58876157 0 250 C-1.17433594 250.33902344 -2.34867188 250.67804688 -3.55859375 251.02734375 C-21.9130976 255.38980524 -45.90223765 255.21629674 -64 250 C-64.67498535 249.81727539 -65.3499707 249.63455078 -66.04541016 249.44628906 C-96.31829414 241.11731398 -125.01342228 221.40348279 -141 194 C-141.40943848 193.30036133 -141.81887695 192.60072266 -142.24072266 191.87988281 C-148.66997596 180.69878109 -153.58876157 169.43772024 -157 157 C-157.33902344 155.82566406 -157.67804688 154.65132812 -158.02734375 153.44140625 C-162.38980524 135.0869024 -162.21629674 111.09776235 -157 93 C-156.72591309 91.98752197 -156.72591309 91.98752197 -156.44628906 90.95458984 C-148.11731398 60.68170586 -128.40348279 31.98657772 -101 16 C-99.95054199 15.38584229 -99.95054199 15.38584229 -98.87988281 14.75927734 C-87.69878109 8.33002404 -76.43772024 3.41123843 -64 0 C-62.82566406 -0.33902344 -61.65132813 -0.67804688 -60.44140625 -1.02734375 C-42.0869024 -5.38980524 -18.09776235 -5.21629674 0 0 Z M-84 65 C-84.969375 65.77472656 -85.93875 66.54945313 -86.9375 67.34765625 C-99.71811013 78.02084664 -109.26935894 96.51690407 -111 113 C-112.55107627 137.02621559 -108.16024352 158.47927148 -92 177 C-90.84177734 178.45212891 -90.84177734 178.45212891 -89.66015625 179.93359375 C-78.91563441 192.80524461 -60.48428032 201.86994977 -44 204 C-21.28822587 205.83736604 0.16615797 201.6556812 18.0078125 186.73828125 C18.66523438 186.16464844 19.32265625 185.59101563 20 185 C21.45212891 183.84177734 21.45212891 183.84177734 22.93359375 182.66015625 C35.80524461 171.91563441 44.86994977 153.48428032 47 137 C48.83736604 114.28822587 44.6556812 92.83384203 29.73828125 74.9921875 C28.87783203 74.00605469 28.87783203 74.00605469 28 73 C27.22527344 72.030625 26.45054687 71.06125 25.65234375 70.0625 C14.97915336 57.28188987 -3.51690407 47.73064106 -20 46 C-44.02621559 44.44892373 -65.47927148 48.83975648 -84 65 Z " fill="#FFFFFF" transform="translate(288,131)"/>
<path d="M0 0 C4.71372937 2.63856166 6.99572627 6.2996788 8.6875 11.375 C9.2510668 17.06485711 9.01546433 21.54408403 5.6875 26.375 C1.32083154 30.77263774 -2.18928363 33.47580225 -8.5625 33.6875 C-14.16711745 33.60561436 -17.86458053 31.80389418 -21.8203125 27.87890625 C-25.87172164 23.23714892 -26.625361 19.59414507 -26.51953125 13.6484375 C-25.96509493 7.56009905 -22.47205236 4.28462599 -18.03125 0.57421875 C-12.76751013 -3.09843611 -5.62689971 -2.53948095 0 0 Z " fill="#FFFFFF" transform="translate(402.3125,102.625)"/>
</svg>
