<?xml version="1.0" encoding="UTF-8"?>
<svg version="1.1" xmlns="http://www.w3.org/2000/svg" width="700" height="400">
<path d="M0 0 C0.94101562 0.48726562 1.88203125 0.97453125 2.8515625 1.4765625 C4.17027344 2.14558594 4.17027344 2.14558594 5.515625 2.828125 C12.11130081 6.48331376 17.4367342 11.27601964 22.8515625 16.4765625 C23.75003906 17.30027344 24.64851563 18.12398437 25.57421875 18.97265625 C30.80183573 23.92087879 35.16351899 28.94842021 39.1640625 34.9140625 C39.74027344 35.77185303 39.74027344 35.77185303 40.328125 36.64697266 C43.99230281 42.33054055 46.89677312 48.40293354 49.8515625 54.4765625 C54.34914047 54.82080158 58.84834193 55.09244862 63.3515625 55.3515625 C64.62 55.44953125 65.8884375 55.5475 67.1953125 55.6484375 C75.36564021 56.15763744 75.36564021 56.15763744 82.453125 52.6015625 C83.58965534 51.56395352 84.72304086 50.52287627 85.8515625 49.4765625 C99.43271477 43.03058276 113.92552039 47.6478429 127.3125 52.34741211 C132.36537259 54.17187383 137.39240385 56.06265983 142.4128418 57.97436523 C145.51294711 59.15412417 148.61821545 60.31933648 151.72460938 61.48242188 C197.07129255 78.55336606 197.07129255 78.55336606 211.8515625 91.4765625 C212.46644531 92.00765625 213.08132813 92.53875 213.71484375 93.0859375 C227.64257821 106.02112077 239.00871492 127.63100068 239.95996094 146.64306641 C240.79551322 180.52402659 232.67518732 212.72163784 210.8515625 239.4765625 C210.1090625 240.41113281 209.3665625 241.34570312 208.6015625 242.30859375 C197.80842413 255.05251896 183.38973363 264.49912431 168.8515625 272.4765625 C168.00319824 272.94449219 167.15483398 273.41242188 166.28076172 273.89453125 C163.41803242 275.46105377 160.54372241 277.00390189 157.6640625 278.5390625 C156.79313965 279.00965088 155.9222168 279.48023926 155.02490234 279.96508789 C137.94873292 288.90222024 119.36242428 294.9667069 101.2265625 301.3515625 C100.10751526 301.74563293 98.98846802 302.13970337 97.83551025 302.54571533 C36.48453283 324.08856543 -26.89510675 337.93676667 -91.1484375 347.4765625 C-92.375625 347.66089844 -93.6028125 347.84523438 -94.8671875 348.03515625 C-127.87364145 352.92949562 -161.79659105 354.08342924 -195.1484375 353.4765625 C-196.10717773 353.46399414 -197.06591797 353.45142578 -198.05371094 353.43847656 C-231.51977576 352.9349957 -266.34346035 351.43133097 -299.1484375 344.4765625 C-300.18303101 344.25743195 -300.18303101 344.25743195 -301.23852539 344.03387451 C-388.49583366 325.45546826 -388.49583366 325.45546826 -405.3671875 300.1484375 C-414.09070253 285.75393758 -418.51464874 272.28395442 -418.46411133 255.54296875 C-418.46097446 253.37708038 -418.48438227 251.21259298 -418.50976562 249.046875 C-418.63901274 220.82933115 -406.27159245 196.88528023 -386.94116211 176.96948242 C-381.50905962 171.49891209 -375.89206228 166.38137129 -369.83203125 161.60546875 C-367.01134275 159.36780465 -364.30808084 157.02026613 -361.5859375 154.6640625 C-344.90240167 140.76826402 -325.39180364 129.3978933 -306.3359375 119.1015625 C-300.29329578 115.83055919 -294.94087631 112.48140857 -290.1484375 107.4765625 C-289.43953369 106.88016968 -289.43953369 106.88016968 -288.71630859 106.27172852 C-286.57746953 103.82282107 -285.76738039 101.33299832 -284.65234375 98.28125 C-284.17791249 97.00676005 -283.70303991 95.73243432 -283.2277832 94.45825195 C-282.98097809 93.78847321 -282.73417297 93.11869446 -282.47988892 92.42861938 C-267.07506392 50.81780086 -267.07506392 50.81780086 -254.1484375 36.4765625 C-253.50648438 35.73921875 -252.86453125 35.001875 -252.203125 34.2421875 C-243.83930986 25.23500196 -231.42125587 17.26525908 -218.93359375 16.203125 C-205.32562819 15.83186886 -194.7711902 19.78689305 -184.1484375 28.4765625 C-183.49746094 29.0025 -182.84648437 29.5284375 -182.17578125 30.0703125 C-172.14068438 39.1369298 -163.70898272 53.18483096 -158.1484375 65.4765625 C-158.1484375 66.1365625 -158.1484375 66.7965625 -158.1484375 67.4765625 C-156.90964844 67.17621094 -155.67085938 66.87585938 -154.39453125 66.56640625 C-144.92439855 64.67371142 -135.16903962 64.46863802 -125.54956055 63.87475586 C-115.88856783 63.26932771 -106.25746842 62.5309136 -96.6640625 61.21484375 C-95.49358116 61.07702232 -95.49358116 61.07702232 -94.29945374 60.93641663 C-88.90713606 60.12473095 -86.36968778 58.46729907 -82.8359375 54.1015625 C-81.5380222 52.34707928 -81.5380222 52.34707928 -80.6015625 50.6171875 C-77.63271265 45.55858886 -74.34878232 40.72387076 -71.0859375 35.8515625 C-70.48185059 34.93729492 -69.87776367 34.02302734 -69.25537109 33.08105469 C-64.90652329 26.51321294 -60.45273111 20.31883607 -55.1484375 14.4765625 C-54.30023438 13.52394531 -53.45203125 12.57132813 -52.578125 11.58984375 C-38.71244225 -3.43941022 -18.97980776 -8.60097617 0 0 Z " fill="#FEC5DF" transform="translate(444.1484375,24.5234375)"/>
<path d="M0 0 C0.94101562 0.48726562 1.88203125 0.97453125 2.8515625 1.4765625 C4.17027344 2.14558594 4.17027344 2.14558594 5.515625 2.828125 C12.11130081 6.48331376 17.4367342 11.27601964 22.8515625 16.4765625 C23.75003906 17.30027344 24.64851563 18.12398437 25.57421875 18.97265625 C30.80183573 23.92087879 35.16351899 28.94842021 39.1640625 34.9140625 C39.74027344 35.77185303 39.74027344 35.77185303 40.328125 36.64697266 C43.99230281 42.33054055 46.89677312 48.40293354 49.8515625 54.4765625 C54.34914047 54.82080158 58.84834193 55.09244862 63.3515625 55.3515625 C64.62 55.44953125 65.8884375 55.5475 67.1953125 55.6484375 C75.36564021 56.15763744 75.36564021 56.15763744 82.453125 52.6015625 C83.58965534 51.56395352 84.72304086 50.52287627 85.8515625 49.4765625 C99.43271477 43.03058276 113.92552039 47.6478429 127.3125 52.34741211 C132.36537259 54.17187383 137.39240385 56.06265983 142.4128418 57.97436523 C145.51294711 59.15412417 148.61821545 60.31933648 151.72460938 61.48242188 C197.07129255 78.55336606 197.07129255 78.55336606 211.8515625 91.4765625 C212.46644531 92.00765625 213.08132813 92.53875 213.71484375 93.0859375 C227.64257821 106.02112077 239.00871492 127.63100068 239.95996094 146.64306641 C240.79551322 180.52402659 232.67518732 212.72163784 210.8515625 239.4765625 C210.1090625 240.41113281 209.3665625 241.34570312 208.6015625 242.30859375 C197.80842413 255.05251896 183.38973363 264.49912431 168.8515625 272.4765625 C168.00319824 272.94449219 167.15483398 273.41242188 166.28076172 273.89453125 C163.41803242 275.46105377 160.54372241 277.00390189 157.6640625 278.5390625 C156.79313965 279.00965088 155.9222168 279.48023926 155.02490234 279.96508789 C137.94873292 288.90222024 119.36242428 294.9667069 101.2265625 301.3515625 C100.10751526 301.74563293 98.98846802 302.13970337 97.83551025 302.54571533 C36.48453283 324.08856543 -26.89510675 337.93676667 -91.1484375 347.4765625 C-92.375625 347.66089844 -93.6028125 347.84523438 -94.8671875 348.03515625 C-127.87364145 352.92949562 -161.79659105 354.08342924 -195.1484375 353.4765625 C-196.10717773 353.46399414 -197.06591797 353.45142578 -198.05371094 353.43847656 C-231.51977576 352.9349957 -266.34346035 351.43133097 -299.1484375 344.4765625 C-300.18303101 344.25743195 -300.18303101 344.25743195 -301.23852539 344.03387451 C-388.49583366 325.45546826 -388.49583366 325.45546826 -405.3671875 300.1484375 C-414.09070253 285.75393758 -418.51464874 272.28395442 -418.46411133 255.54296875 C-418.46097446 253.37708038 -418.48438227 251.21259298 -418.50976562 249.046875 C-418.63901274 220.82933115 -406.27159245 196.88528023 -386.94116211 176.96948242 C-381.50905962 171.49891209 -375.89206228 166.38137129 -369.83203125 161.60546875 C-367.01134275 159.36780465 -364.30808084 157.02026613 -361.5859375 154.6640625 C-344.90240167 140.76826402 -325.39180364 129.3978933 -306.3359375 119.1015625 C-300.29329578 115.83055919 -294.94087631 112.48140857 -290.1484375 107.4765625 C-289.43953369 106.88016968 -289.43953369 106.88016968 -288.71630859 106.27172852 C-286.57746953 103.82282107 -285.76738039 101.33299832 -284.65234375 98.28125 C-284.17791249 97.00676005 -283.70303991 95.73243432 -283.2277832 94.45825195 C-282.98097809 93.78847321 -282.73417297 93.11869446 -282.47988892 92.42861938 C-267.07506392 50.81780086 -267.07506392 50.81780086 -254.1484375 36.4765625 C-253.50648438 35.73921875 -252.86453125 35.001875 -252.203125 34.2421875 C-243.83930986 25.23500196 -231.42125587 17.26525908 -218.93359375 16.203125 C-205.32562819 15.83186886 -194.7711902 19.78689305 -184.1484375 28.4765625 C-183.49746094 29.0025 -182.84648437 29.5284375 -182.17578125 30.0703125 C-172.14068438 39.1369298 -163.70898272 53.18483096 -158.1484375 65.4765625 C-158.1484375 66.1365625 -158.1484375 66.7965625 -158.1484375 67.4765625 C-156.90964844 67.17621094 -155.67085938 66.87585938 -154.39453125 66.56640625 C-144.92439855 64.67371142 -135.16903962 64.46863802 -125.54956055 63.87475586 C-115.88856783 63.26932771 -106.25746842 62.5309136 -96.6640625 61.21484375 C-95.49358116 61.07702232 -95.49358116 61.07702232 -94.29945374 60.93641663 C-88.90713606 60.12473095 -86.36968778 58.46729907 -82.8359375 54.1015625 C-81.5380222 52.34707928 -81.5380222 52.34707928 -80.6015625 50.6171875 C-77.63271265 45.55858886 -74.34878232 40.72387076 -71.0859375 35.8515625 C-70.48185059 34.93729492 -69.87776367 34.02302734 -69.25537109 33.08105469 C-64.90652329 26.51321294 -60.45273111 20.31883607 -55.1484375 14.4765625 C-54.30023438 13.52394531 -53.45203125 12.57132813 -52.578125 11.58984375 C-38.71244225 -3.43941022 -18.97980776 -8.60097617 0 0 Z M-49.68164062 34.46923828 C-53.6646224 39.63203141 -57.11494803 45.04266821 -60.4934082 50.61303711 C-64.57521441 57.30109012 -69.11913339 63.47245331 -74.1484375 69.4765625 C-74.68339844 70.146875 -75.21835937 70.8171875 -75.76953125 71.5078125 C-86.21192638 82.57403903 -113.48346209 79.82075579 -127.35644531 80.67382812 C-140.02664169 81.46897833 -151.21665196 82.99433416 -163.1484375 87.4765625 C-164.1384375 87.8065625 -165.1284375 88.1365625 -166.1484375 88.4765625 C-166.42155762 87.59444092 -166.69467773 86.71231934 -166.97607422 85.8034668 C-168.0615049 82.72325773 -169.31308248 80.08845547 -170.90625 77.24609375 C-171.44572266 76.2830835 -171.98519531 75.32007324 -172.54101562 74.32788086 C-173.11271484 73.3250708 -173.68441406 72.32226074 -174.2734375 71.2890625 C-175.15032227 69.74520874 -175.15032227 69.74520874 -176.04492188 68.17016602 C-180.02270572 61.24695411 -184.13851002 54.70577353 -189.1484375 48.4765625 C-189.56996094 47.89390625 -189.99148437 47.31125 -190.42578125 46.7109375 C-195.42600979 40.04396611 -204.18985284 34.507856 -212.3828125 33.08984375 C-221.80889437 32.41440795 -229.74087642 37.21715698 -236.8359375 43.0390625 C-247.42363901 53.1879944 -253.40482971 66.22831326 -259.1484375 79.4765625 C-259.59993164 80.51119629 -260.05142578 81.54583008 -260.51660156 82.61181641 C-261.9410047 85.91045996 -263.33151381 89.22138049 -264.7109375 92.5390625 C-265.15300537 93.57321289 -265.59507324 94.60736328 -266.05053711 95.67285156 C-268.59784522 101.9567185 -270.25732233 107.66374052 -269.1484375 114.4765625 C-268.19401603 116.69582673 -268.19401603 116.69582673 -267.1484375 118.4765625 C-267.92960938 118.73566406 -268.71078125 118.99476563 -269.515625 119.26171875 C-300.78674056 130.64886217 -331.7928772 152.01117036 -357.1484375 173.4765625 C-357.70563477 173.94352539 -358.26283203 174.41048828 -358.83691406 174.89160156 C-380.03816004 192.66544786 -399.46232367 213.14147105 -402.05859375 242.20703125 C-402.84251143 262.00947346 -400.77842594 279.79056138 -387.5234375 295.5390625 C-376.30073967 306.76176033 -361.96866202 311.03077922 -347.1484375 315.4765625 C-346.42769043 315.69908691 -345.70694336 315.92161133 -344.96435547 316.15087891 C-306.73481505 327.8990227 -267.09884782 332.87039117 -227.32989502 335.33554077 C-225.29506579 335.46708362 -223.26146236 335.61722194 -221.22802734 335.76879883 C-149.43061139 340.94060756 -75.78910902 331.38336367 -6.10058594 314.203125 C-1.85199511 313.157491 2.40452489 312.14562938 6.66040039 311.13012695 C9.83629648 310.37017103 13.00998517 309.60147475 16.18359375 308.83203125 C19.50785557 308.0296611 22.83328477 307.24989531 26.17578125 306.52734375 C51.55453727 301.00028947 76.25116347 291.82023832 100.7255249 283.22259521 C102.80128553 282.49420483 104.87830788 281.76951592 106.95556641 281.04541016 C135.5802731 271.04141621 165.2114033 259.3373112 187.8515625 238.4765625 C188.68429687 237.73535156 189.51703125 236.99414062 190.375 236.23046875 C210.00183441 217.84163466 221.99497348 189.21273057 223.17578125 162.57421875 C223.46608523 151.58732972 223.41181647 141.64183452 218.8515625 131.4765625 C218.40425781 130.4453125 217.95695313 129.4140625 217.49609375 128.3515625 C214.38501257 121.67900233 210.56956169 116.09752804 205.8515625 110.4765625 C205.1296875 109.4865625 204.4078125 108.4965625 203.6640625 107.4765625 C187.45445978 88.73743578 158.22431976 82.34869694 135.78521729 74.18145752 C132.14781978 72.85547969 128.51543137 71.51593002 124.88305664 70.17626953 C123.34506567 69.60925531 121.80654217 69.04368209 120.26733398 68.47998047 C117.58550413 67.49674098 114.93879246 66.51644681 112.33984375 65.328125 C106.66241163 63.38514195 98.24016343 63.0479189 92.609375 65.421875 C89.45395453 67.91795388 88.21335456 70.81019927 86.8515625 74.4765625 C85.82804687 74.34378906 84.80453125 74.21101563 83.75 74.07421875 C71.75703891 72.62331342 59.8005694 72.09890429 47.73388672 71.81860352 C46.48236816 71.78694092 45.23084961 71.75527832 43.94140625 71.72265625 C42.25325806 71.68676392 42.25325806 71.68676392 40.53100586 71.65014648 C37.8515625 71.4765625 37.8515625 71.4765625 35.8515625 70.4765625 C35.53515625 68.75390625 35.53515625 68.75390625 35.2890625 66.4140625 C33.0115542 53.99452504 24.15028023 42.57184127 15.8515625 33.4765625 C14.79001953 32.29320312 14.79001953 32.29320312 13.70703125 31.0859375 C4.52467865 21.35760717 -6.15369377 13.50169056 -19.7734375 13.1015625 C-33.22532493 13.00384903 -41.97026118 24.76125008 -49.68164062 34.46923828 Z " fill="#FEFDFD" transform="translate(444.1484375,24.5234375)"/>
<path d="M0 0 C18.38675546 10.54325545 32.82207459 27.73419364 40.52734375 47.44921875 C41.29999125 50.71412557 41.60066243 53.24284902 40.52734375 56.44921875 C37.57666664 59.97563773 35.62787791 61.2046556 31.15234375 62.19921875 C24.54503557 60.83218947 20.12363448 55.64003548 16.4375 50.1796875 C15.47888484 48.67129528 14.52982266 47.15679433 13.58984375 45.63671875 C3.14861319 29.25420683 3.14861319 29.25420683 -12.47265625 18.44921875 C-17.90124222 18.81294025 -20.07427711 21.74035438 -23.51803589 25.63963318 C-28.45307316 31.3702778 -32.52346909 37.65701732 -36.59765625 44.01171875 C-50.00083067 64.78229683 -60.35744041 77.46867478 -84.89543152 83.02624512 C-95.5119951 85.2657719 -106.30088209 85.5640519 -117.10913086 86.08544922 C-130.40688557 86.75212475 -141.40745028 88.33790017 -153.72265625 93.69921875 C-159.9783389 96.25421393 -164.84827987 96.47228073 -171.16015625 94.01171875 C-178.33922125 89.22018683 -181.62107794 80.31909674 -185.29614258 72.82519531 C-193.75658666 54.06569538 -193.75658666 54.06569538 -207.47265625 39.44921875 C-211.65731027 39.2590072 -214.16015964 40.68672142 -217.34765625 43.19921875 C-227.73720982 53.13981696 -233.26678623 67.95190006 -239.27172852 80.75708008 C-240.35624173 83.0628941 -241.45116112 85.36355495 -242.546875 87.6640625 C-242.86782639 88.35789536 -243.18877777 89.05172821 -243.51945496 89.7665863 C-248.2128055 99.60156635 -255.77991491 105.6044355 -264.97265625 111.13671875 C-270.26077971 114.37696365 -275.40030444 117.73082195 -280.41015625 121.38671875 C-285.53510635 125.1216644 -290.76206696 128.64672882 -296.09765625 132.07421875 C-296.82404297 132.54166504 -297.55042969 133.00911133 -298.29882812 133.49072266 C-301.39026202 135.47717213 -304.48546472 137.45736667 -307.5859375 139.4296875 C-321.27959157 148.3125696 -334.15260654 158.53163188 -345.86767578 169.89550781 C-346.97947082 170.97178765 -348.09813193 172.04100289 -349.22216797 173.10449219 C-367.21792304 190.13367364 -380.14212678 208.47671818 -380.875 234.02734375 C-380.98334368 243.4171296 -380.75729018 251.89329866 -376.47265625 260.44921875 C-376.04855469 261.34769531 -375.62445313 262.24617188 -375.1875 263.171875 C-369.52078621 273.88969857 -358.81599949 278.57968955 -347.72338867 282.39477539 C-344.88035844 283.25409579 -342.02826984 284.05276594 -339.16015625 284.82421875 C-337.56530396 285.26084839 -337.56530396 285.26084839 -335.93823242 285.70629883 C-327.42400657 288.00107429 -318.86630399 290.10795605 -310.28515625 292.13671875 C-309.13684326 292.40983887 -307.98853027 292.68295898 -306.80541992 292.96435547 C-287.79459913 297.35809702 -268.87147428 300.28065718 -249.41015625 301.69921875 C-247.7325824 301.82579361 -247.7325824 301.82579361 -246.02111816 301.95492554 C-224.91985278 303.50427923 -203.86969363 303.80238361 -182.72265625 303.76171875 C-181.97894146 303.76059586 -181.23522667 303.75947296 -180.46897507 303.75831604 C-155.13405059 304.47112974 -155.13405059 304.47112974 -130.07714844 301.96923828 C-126.24853398 301.20480739 -122.38931133 300.93659705 -118.50390625 300.5859375 C-107.5935296 299.54296763 -96.79546763 297.97501037 -85.97265625 296.26171875 C-85.00287842 296.10926697 -84.03310059 295.95681519 -83.03393555 295.79974365 C-52.30828203 290.95304062 -22.08194928 284.73861838 8.06134033 277.07354736 C10.59398857 276.432346 13.12848773 275.79896885 15.66357422 275.16748047 C38.74929108 269.40847882 61.4025343 262.92529117 83.86425781 255.07324219 C88.00007037 253.6283427 92.14537849 252.21254099 96.29286194 250.80154419 C158.82039126 229.70260117 158.82039126 229.70260117 201.44458008 181.92797852 C209.61395763 165.01222074 214.5104584 142.37924728 209.02734375 123.94921875 C202.77769892 108.49751067 191.26104055 101.27219717 176.61791992 94.74804688 C170.85502493 92.3261651 164.98331142 90.21572331 159.08984375 88.13671875 C158.42381134 87.90032684 157.75777893 87.66393494 157.07156372 87.42037964 C145.15122865 83.203199 133.12319548 79.55812427 120.9296875 76.203125 C119.89312012 75.9158252 118.85655273 75.62852539 117.78857422 75.33251953 C115.46080847 74.70204667 113.12547279 74.0992541 110.78564453 73.51513672 C109.54669434 73.19303223 108.30774414 72.87092773 107.03125 72.5390625 C105.3443103 72.11741821 105.3443103 72.11741821 103.62329102 71.68725586 C99.97861141 70.2297864 98.11675045 68.36062717 95.52734375 65.44921875 C94.86734375 64.78921875 94.20734375 64.12921875 93.52734375 63.44921875 C92.84665915 56.52892535 92.84665915 56.52892535 95.33984375 52.57421875 C99.57673549 48.45838106 102.70868841 47.73378743 108.49609375 47.68139648 C118.32714766 48.10104179 127.37930503 52.3947196 136.39216614 56.01068115 C141.69581629 58.13690526 147.03351986 60.16358758 152.3828125 62.171875 C154.97376343 63.14939168 157.5642561 64.12811129 160.15454102 65.10739136 C161.83356044 65.74142653 163.51322737 66.37375022 165.19360352 67.00418091 C173.72698226 70.2147028 182.12476069 73.56637377 190.30078125 77.61328125 C191.2559388 78.08309921 191.2559388 78.08309921 192.23039246 78.56240845 C207.5661813 86.37603948 217.87928622 99.82931458 224.52734375 115.44921875 C225.14802734 116.83560547 225.14802734 116.83560547 225.78125 118.25 C233.67912568 139.0266416 228.37660231 164.98796629 219.73242188 184.70800781 C214.61958147 195.8671338 208.7412036 206.24297806 200.52734375 215.44921875 C199.45613281 216.66158203 199.45613281 216.66158203 198.36328125 217.8984375 C174.07918358 243.76628067 137.59411187 256.21931493 104.99157715 267.58874512 C102.51955181 268.45193958 100.04915765 269.31966462 97.57910156 270.18847656 C79.37000354 276.58569784 61.17770172 282.80480082 42.48925781 287.67529297 C39.41110419 288.47959127 36.34036358 289.30884273 33.26953125 290.140625 C-27.44363949 306.42562056 -91.51092701 319.1770369 -154.47265625 320.44921875 C-155.3490979 320.46770874 -156.22553955 320.48619873 -157.12854004 320.50524902 C-186.60919824 321.09320418 -215.84589345 320.21706198 -245.21911621 317.64520264 C-247.28259056 317.46574822 -249.34683165 317.29516739 -251.41113281 317.12548828 C-279.42187296 314.77128724 -307.40111403 308.93256311 -334.47265625 301.44921875 C-335.45540527 301.18141602 -336.4381543 300.91361328 -337.45068359 300.63769531 C-355.97860232 295.52633966 -375.9554794 289.8144096 -386.78515625 272.57421875 C-387.70793111 270.88028643 -388.60377604 269.17141715 -389.47265625 267.44921875 C-389.93542969 266.57265625 -390.39820313 265.69609375 -390.875 264.79296875 C-399.5714618 247.24880234 -397.78626091 226.25272564 -392.44140625 207.91015625 C-385.56598634 188.44528501 -370.18873165 172.40590545 -354.3203125 159.74609375 C-352.46570911 158.25019966 -350.63806911 156.72004009 -348.84375 155.15234375 C-325.66234309 134.9716595 -291.149829 111.20856049 -261.47265625 102.44921875 C-261.79242432 101.87743896 -262.11219238 101.30565918 -262.44165039 100.71655273 C-265.11151786 94.8451203 -263.84253827 88.90323893 -261.70297241 83.02201843 C-260.38020126 79.61460534 -258.96902001 76.2486245 -257.53515625 72.88671875 C-256.93488625 71.45041669 -256.33495324 70.01397376 -255.73535156 68.57739258 C-247.26715228 48.45586948 -238.40845378 28.86717702 -217.91015625 18.44921875 C-210.56692706 16.31300662 -205.22615021 16.76857038 -198.28515625 20.07421875 C-181.35804853 29.43264518 -166.09840192 52.45721187 -160.79711914 70.78466797 C-160.69004639 71.33396973 -160.58297363 71.88327148 -160.47265625 72.44921875 C-159.5290625 72.11148438 -158.58546875 71.77375 -157.61328125 71.42578125 C-156.31658181 70.97475536 -155.01969641 70.52426387 -153.72265625 70.07421875 C-153.10777344 69.8525 -152.49289062 69.63078125 -151.859375 69.40234375 C-141.40902764 65.81333557 -130.61973215 65.13846825 -119.66082764 64.61550903 C-109.18250931 64.10388356 -98.74299693 63.47524695 -88.34765625 62.01171875 C-87.53304932 61.90158447 -86.71844238 61.7914502 -85.87915039 61.67797852 C-75.55048098 60.0995437 -69.69278442 55.82213197 -63.47265625 47.44921875 C-60.47149347 43.13516114 -57.58857348 38.74401048 -54.70800781 34.34887695 C-24.68183354 -11.40084694 -24.68183354 -11.40084694 0 0 Z " fill="#FE0551" transform="translate(438.47265625,40.55078125)"/>
<path d="M0 0 C4.80414643 2.43780654 7.66081968 5.20064728 10 10 C10.66 10.33 11.32 10.66 12 11 C12.6025761 16.44550249 12.72315942 20.75804192 9.5 25.375 C5.32078344 30.28880569 -0.56676318 33.29673552 -6.9453125 34.30859375 C-13.72787469 34.70971302 -17.95461737 32.4487295 -23 28 C-25 25.25 -25 25.25 -26 23 C-26.33 22.34 -26.66 21.68 -27 21 C-27.48109908 16.18900919 -27.63554979 14.02508031 -25.0625 9.875 C-18.20538605 2.70351979 -9.99578604 -1.5798362 0 0 Z " fill="#FF2987" transform="translate(366,284)"/>
<path d="M0 0 C2.33464851 2.29456871 2.41613065 3.49224101 2.4453125 6.7265625 C2.27008449 10.60418873 2.15312364 11.43918412 -0.6171875 14.3515625 C-4.70839342 16.00239998 -8.73032636 17.25518605 -13.1796875 16.7890625 C-14.92578125 15.5 -14.92578125 15.5 -16.1796875 13.7890625 C-16.76664213 8.60429664 -16.02787536 5.16306528 -13.1796875 0.7890625 C-9.41399872 -2.16969297 -4.14031446 -2.3001747 0 0 Z " fill="#FF318B" transform="translate(594.1796875,221.2109375)"/>
<path d="M0 0 C3.375 1.6875 3.375 1.6875 6 4 C6.625 6.5625 6.625 6.5625 6 9 C3.7852664 11.47027978 2.34378365 11.94879818 -0.9375 12.4375 C-4.80632104 11.88481128 -6.39924487 10.90672632 -9 8 C-9.5 4.875 -9.5 4.875 -9 2 C-5.46569344 -0.35620437 -4.16428713 -0.48991613 0 0 Z " fill="#FF348D" transform="translate(129,293)"/>
<path d="M0 0 C0.33 0 0.66 0 1 0 C1.1953125 1.953125 1.390625 3.90625 1.5859375 5.859375 C2.03532965 8.1826476 2.85774238 9.9383643 4 12 C2.04578965 12.86355778 0.08648653 13.71559934 -1.875 14.5625 C-2.96554688 15.03816406 -4.05609375 15.51382813 -5.1796875 16.00390625 C-6.11039063 16.33261719 -7.04109375 16.66132813 -8 17 C-8.66 16.67 -9.32 16.34 -10 16 C-8.87811441 14.85111717 -7.75238316 13.70598863 -6.625 12.5625 C-5.99851563 11.92441406 -5.37203125 11.28632813 -4.7265625 10.62890625 C-3 9 -3 9 -1 8 C-0.53476937 6.10466658 -0.53476937 6.10466658 -0.375 3.9375 C-0.25125 2.638125 -0.1275 1.33875 0 0 Z " fill="#FEBFD9" transform="translate(174,131)"/>
<path d="M0 0 C2.64 0.33 5.28 0.66 8 1 C7.1875 2.9375 7.1875 2.9375 6 5 C5.01 5.33 4.02 5.66 3 6 C3 5.34 3 4.68 3 4 C-1.455 4.495 -1.455 4.495 -6 5 C-4 3.66666667 -2 2.33333333 0 1 C0 0.67 0 0.34 0 0 Z " fill="#FF4681" transform="translate(177,141)"/>
</svg>
