<?xml version="1.0" encoding="UTF-8"?>
<svg version="1.1" xmlns="http://www.w3.org/2000/svg" width="643" height="342">
<path d="M0 0 C3.61347045 2.39606846 6.80289184 5.07581571 10 8 C10.969375 8.8765625 11.93875 9.753125 12.9375 10.65625 C22.99240802 20.05606796 33.11011062 32.56964509 37 46 C37.02956895 48.33314597 37.03240428 50.66689169 37 53 C37.98693848 53.01981934 38.97387695 53.03963867 39.99072266 53.06005859 C43.72222522 53.13727633 47.45339521 53.2257926 51.18457031 53.31738281 C52.78639059 53.3552009 54.38828229 53.39012698 55.99023438 53.421875 C81.88201697 53.94100849 81.88201697 53.94100849 88 57 C88.0825 56.278125 88.165 55.55625 88.25 54.8125 C89.19336949 51.27486443 90.37458669 49.55632349 93 47 C101.38970202 43.30853111 110.38565002 45.72803207 118.6875 48.625 C119.54126221 48.91640869 120.39502441 49.20781738 121.2746582 49.50805664 C131.15225136 52.94843497 140.91862205 56.70213262 150.6875 60.4375 C151.50713226 60.74979553 152.32676453 61.06209106 153.17123413 61.3838501 C162.16829624 64.82036927 171.08614687 68.39153084 179.89453125 72.2890625 C180.63660324 72.61672104 181.37867523 72.94437958 182.14323425 73.28196716 C187.49545614 75.68428752 192.40824794 78.3122771 197 82 C197.81597656 82.65484375 198.63195312 83.3096875 199.47265625 83.984375 C213.76682633 96.14412149 223.37493334 113.21306137 225.1953125 132.01757812 C227.01319177 163.01241975 215.65812717 192.7191603 195.75 216.1875 C170.07077093 243.53763782 131.27209934 256.5874303 96.875 268.75 C95.22573517 269.33377914 95.22573517 269.33377914 93.54315186 269.92935181 C62.54765392 280.85684025 31.05203368 289.75605849 -1 297 C-1.85835449 297.1949707 -2.71670898 297.38994141 -3.60107422 297.59082031 C-6.49404365 298.24549841 -9.38702958 298.89871723 -12.28666687 299.52333069 C-16.03206966 300.33296885 -19.76344135 301.17755662 -23.48413086 302.09448242 C-39.48570837 305.98360944 -55.66667491 308.45517211 -71.93994141 310.86236572 C-74.8554777 311.29619426 -77.76947668 311.73989601 -80.68354321 312.18347168 C-102.92624144 315.56505321 -124.9425181 318.11465728 -147.43579102 319.00537109 C-150.43217979 319.12478797 -153.42795259 319.25511256 -156.42382812 319.38671875 C-175.71124485 320.20448855 -194.90710794 320.22162673 -214.1875 319.25 C-215.04841248 319.20709839 -215.90932495 319.16419678 -216.79632568 319.11999512 C-252.60541657 317.2946735 -287.07342653 313.17604925 -322 305 C-322.95656494 304.77900635 -323.91312988 304.5580127 -324.89868164 304.33032227 C-379.00638879 291.73697537 -379.00638879 291.73697537 -391.11035156 273.30957031 C-392.24944877 271.43897936 -393.32539504 269.54716811 -394.375 267.625 C-394.69694336 267.0371875 -395.01888672 266.449375 -395.35058594 265.84375 C-400.32466791 256.11665636 -401.5072323 246.50532517 -401.375 235.6875 C-401.36557373 234.49632568 -401.35614746 233.30515137 -401.34643555 232.07788086 C-400.876035 204.67283198 -388.03096654 184.44012236 -368.8046875 165.61328125 C-364.38765712 161.49769166 -359.72925173 157.74759243 -355 154 C-353.85505053 153.05546688 -352.71190863 152.1087396 -351.5703125 151.16015625 C-333.30607193 136.08296437 -312.51088071 123.82706931 -291.72680664 112.56396484 C-285.87595798 109.38251936 -281.35471319 105.91325477 -276.8671875 100.98046875 C-275 99 -275 99 -272.8828125 97.80078125 C-270.41252461 95.43812002 -270.32245 93.20561273 -269.71582031 89.93457031 C-268.25658045 83.95228412 -265.66931835 78.29310953 -263.30712891 72.61865234 C-262.38752508 70.40514812 -261.48403161 68.18556963 -260.58203125 65.96484375 C-253.07414381 47.67538276 -244.14828213 27.05484013 -225.625 17.5 C-218.41915304 14.51827022 -211.69683864 13.82147945 -204.1875 16.3125 C-183.6678841 25.4747471 -173.74356067 50.49459184 -164 69 C-163.31035156 68.80664062 -162.62070313 68.61328125 -161.91015625 68.4140625 C-160.50056641 68.02347656 -160.50056641 68.02347656 -159.0625 67.625 C-158.14597656 67.36976562 -157.22945312 67.11453125 -156.28515625 66.8515625 C-149.0989013 64.98877584 -142.23903585 63.68440781 -134.8203125 63.25390625 C-133.06770491 63.13742127 -131.31510086 63.02088303 -129.5625 62.90429688 C-126.86050577 62.73299238 -124.15835771 62.56455358 -121.45605469 62.39819336 C-111.79056753 61.79387791 -102.19714431 61.04165333 -92.6171875 59.58984375 C-91.46828537 59.42217247 -91.46828537 59.42217247 -90.2961731 59.25111389 C-80.47900485 57.6581078 -75.02020797 53.91103142 -69 46 C-65.96579243 41.70758435 -63.10607732 37.29959032 -60.23925781 32.89453125 C-28.28466945 -15.9564549 -28.28466945 -15.9564549 0 0 Z " fill="#FEC5DF" transform="translate(414,13)"/>
<path d="M0 0 C3.61347045 2.39606846 6.80289184 5.07581571 10 8 C10.969375 8.8765625 11.93875 9.753125 12.9375 10.65625 C22.71143718 19.79829878 34.62012029 33.2012029 36 47 C36.08765625 47.65355469 36.1753125 48.30710938 36.265625 48.98046875 C36.4375 51.0625 36.4375 51.0625 36 55 C33.04476028 58.45979285 31.06211593 59.76397424 26.625 60.75 C20.01769182 59.38297072 15.59629073 54.19081673 11.91015625 48.73046875 C10.95154109 47.22207653 10.00247891 45.70757558 9.0625 44.1875 C-1.37873056 27.80498808 -1.37873056 27.80498808 -17 17 C-22.42858597 17.3637215 -24.60162086 20.29113563 -28.04537964 24.19041443 C-32.98041691 29.92105905 -37.05081284 36.20779857 -41.125 42.5625 C-53.42506728 61.62361938 -62.94785096 75.4754808 -85.9375 80.6875 C-88.29259562 81.17281048 -90.62909409 81.60841131 -93 82 C-93.98234619 82.16338867 -94.96469238 82.32677734 -95.97680664 82.49511719 C-102.36046118 83.48581747 -108.68163821 84.18266275 -115.12890625 84.4921875 C-115.81899277 84.52558731 -116.50907928 84.55898712 -117.22007751 84.59339905 C-120.0427547 84.72475247 -122.86539588 84.84923172 -125.68920898 84.95361328 C-137.34308466 85.40158134 -147.50671599 87.54356336 -158.25 92.25 C-164.50568265 94.80499518 -169.37562362 95.02306198 -175.6875 92.5625 C-182.866565 87.77096808 -186.14842169 78.86987799 -189.82348633 71.37597656 C-198.28393041 52.61647663 -198.28393041 52.61647663 -212 38 C-216.18465402 37.80978845 -218.68750339 39.23750267 -221.875 41.75 C-232.26455357 51.69059821 -237.79412998 66.50268131 -243.79907227 79.30786133 C-244.88358548 81.61367535 -245.97850487 83.9143362 -247.07421875 86.21484375 C-247.39517014 86.90867661 -247.71612152 87.60250946 -248.04679871 88.31736755 C-252.74014925 98.1523476 -260.30725866 104.15521675 -269.5 109.6875 C-274.7881102 112.92773678 -279.92774819 116.28147959 -284.9375 119.9375 C-290.0392437 123.6573229 -295.24554735 127.15735377 -300.5625 130.5625 C-318.16394864 141.86076692 -335.33335976 153.83018007 -350.37890625 168.43017578 C-351.49746807 169.5133614 -352.62292568 170.58945556 -353.75390625 171.65966797 C-371.74814338 188.68715208 -384.66955086 207.03030026 -385.40234375 232.578125 C-385.51068743 241.96791085 -385.28463393 250.44407991 -381 259 C-380.57589844 259.89847656 -380.15179688 260.79695313 -379.71484375 261.72265625 C-374.04812996 272.44047982 -363.34334324 277.1304708 -352.25073242 280.94555664 C-349.40770219 281.80487704 -346.55561359 282.60354719 -343.6875 283.375 C-342.09264771 283.81162964 -342.09264771 283.81162964 -340.46557617 284.25708008 C-331.95135032 286.55185554 -323.39364774 288.6587373 -314.8125 290.6875 C-313.66418701 290.96062012 -312.51587402 291.23374023 -311.33276367 291.51513672 C-293.49294661 295.63823831 -275.56020722 298.70419728 -257.3125 300.25 C-256.33952972 300.33371857 -255.36655945 300.41743713 -254.36410522 300.50369263 C-234.34128492 302.15824969 -214.31973391 302.40767536 -194.24135971 302.43345642 C-191.8632431 302.43741552 -189.48518558 302.44625457 -187.10708618 302.45593262 C-155.29311493 302.55877976 -123.84289662 300.4857067 -92.4375 295.25 C-90.25315973 294.89533733 -88.06875064 294.54109827 -85.88427734 294.18725586 C-55.74502598 289.26188394 -26.0612214 283.1500317 3.53399658 275.62432861 C6.06664482 274.98312725 8.60114398 274.3497501 11.13623047 273.71826172 C34.22194733 267.95926007 56.87519055 261.47607242 79.33691406 253.62402344 C83.47272662 252.17912395 87.61803474 250.76332224 91.76551819 249.35232544 C154.29304751 228.25338242 154.29304751 228.25338242 196.91723633 180.47875977 C205.08661388 163.56300199 209.98311465 140.93002853 204.5 122.5 C198.25035517 107.04829192 186.7336968 99.82297842 172.09057617 93.29882812 C166.32768118 90.87694635 160.45596767 88.76650456 154.5625 86.6875 C153.89646759 86.45110809 153.23043518 86.21471619 152.54421997 85.97116089 C140.6238849 81.75398025 128.59585173 78.10890552 116.40234375 74.75390625 C115.36577637 74.46660645 114.32920898 74.17930664 113.26123047 73.88330078 C110.93346472 73.25282792 108.59812904 72.65003535 106.25830078 72.06591797 C105.01935059 71.74381348 103.78040039 71.42170898 102.50390625 71.08984375 C100.81696655 70.66819946 100.81696655 70.66819946 99.09594727 70.23803711 C94.31883508 68.32771963 91.80650562 65.20975844 89 61 C88.7012586 55.98267651 88.91064303 51.42978102 92 47.375 C104.36956268 41.7056171 118.72924759 48.36009175 130.66796875 52.79296875 C133.54243286 53.87550627 136.41242345 54.96870954 139.27954102 56.07055664 C142.16235233 57.17784081 145.05031155 58.27068271 147.93945312 59.36132812 C201.92780924 79.85456629 201.92780924 79.85456629 215 102 C215.53238281 102.90105469 216.06476562 103.80210938 216.61328125 104.73046875 C227.68933869 125.09612275 227.08338839 148.43029646 220.9375 170.3125 C209.99697977 206.6172336 185.27250771 228.67954415 152.796875 246.32421875 C135.0105932 255.60809806 115.74645491 262.07718776 96.875 268.75 C95.22573517 269.33377914 95.22573517 269.33377914 93.54315186 269.92935181 C62.54765392 280.85684025 31.05203368 289.75605849 -1 297 C-1.85835449 297.1949707 -2.71670898 297.38994141 -3.60107422 297.59082031 C-6.49404365 298.24549841 -9.38702958 298.89871723 -12.28666687 299.52333069 C-16.03206966 300.33296885 -19.76344135 301.17755662 -23.48413086 302.09448242 C-39.48570837 305.98360944 -55.66667491 308.45517211 -71.93994141 310.86236572 C-74.8554777 311.29619426 -77.76947668 311.73989601 -80.68354321 312.18347168 C-102.92624144 315.56505321 -124.9425181 318.11465728 -147.43579102 319.00537109 C-150.43217979 319.12478797 -153.42795259 319.25511256 -156.42382812 319.38671875 C-175.71124485 320.20448855 -194.90710794 320.22162673 -214.1875 319.25 C-215.04841248 319.20709839 -215.90932495 319.16419678 -216.79632568 319.11999512 C-252.60541657 317.2946735 -287.07342653 313.17604925 -322 305 C-322.95656494 304.77900635 -323.91312988 304.5580127 -324.89868164 304.33032227 C-379.00638879 291.73697537 -379.00638879 291.73697537 -391.11035156 273.30957031 C-392.24944877 271.43897936 -393.32539504 269.54716811 -394.375 267.625 C-394.69694336 267.0371875 -395.01888672 266.449375 -395.35058594 265.84375 C-400.32466791 256.11665636 -401.5072323 246.50532517 -401.375 235.6875 C-401.36557373 234.49632568 -401.35614746 233.30515137 -401.34643555 232.07788086 C-400.876035 204.67283198 -388.03096654 184.44012236 -368.8046875 165.61328125 C-364.38765712 161.49769166 -359.72925173 157.74759243 -355 154 C-353.85505053 153.05546688 -352.71190863 152.1087396 -351.5703125 151.16015625 C-333.30607193 136.08296437 -312.51088071 123.82706931 -291.72680664 112.56396484 C-285.87595798 109.38251936 -281.35471319 105.91325477 -276.8671875 100.98046875 C-275 99 -275 99 -272.8828125 97.80078125 C-270.41252461 95.43812002 -270.32245 93.20561273 -269.71582031 89.93457031 C-268.25658045 83.95228412 -265.66931835 78.29310953 -263.30712891 72.61865234 C-262.38752508 70.40514812 -261.48403161 68.18556963 -260.58203125 65.96484375 C-253.07414381 47.67538276 -244.14828213 27.05484013 -225.625 17.5 C-218.41915304 14.51827022 -211.69683864 13.82147945 -204.1875 16.3125 C-183.6678841 25.4747471 -173.74356067 50.49459184 -164 69 C-163.31035156 68.80664062 -162.62070313 68.61328125 -161.91015625 68.4140625 C-160.50056641 68.02347656 -160.50056641 68.02347656 -159.0625 67.625 C-158.14597656 67.36976562 -157.22945312 67.11453125 -156.28515625 66.8515625 C-149.0989013 64.98877584 -142.23903585 63.68440781 -134.8203125 63.25390625 C-133.06770491 63.13742127 -131.31510086 63.02088303 -129.5625 62.90429688 C-126.86050577 62.73299238 -124.15835771 62.56455358 -121.45605469 62.39819336 C-111.79056753 61.79387791 -102.19714431 61.04165333 -92.6171875 59.58984375 C-91.46828537 59.42217247 -91.46828537 59.42217247 -90.2961731 59.25111389 C-80.47900485 57.6581078 -75.02020797 53.91103142 -69 46 C-65.96579243 41.70758435 -63.10607732 37.29959032 -60.23925781 32.89453125 C-28.28466945 -15.9564549 -28.28466945 -15.9564549 0 0 Z " fill="#FE0D57" transform="translate(414,13)"/>
<path d="M0 0 C4.80414643 2.43780654 7.66081968 5.20064728 10 10 C10.66 10.33 11.32 10.66 12 11 C12.6025761 16.44550249 12.72315942 20.75804192 9.5 25.375 C5.32078344 30.28880569 -0.56676318 33.29673552 -6.9453125 34.30859375 C-13.72787469 34.70971302 -17.95461737 32.4487295 -23 28 C-25 25.25 -25 25.25 -26 23 C-26.33 22.34 -26.66 21.68 -27 21 C-27.48109908 16.18900919 -27.63554979 14.02508031 -25.0625 9.875 C-18.20538605 2.70351979 -9.99578604 -1.5798362 0 0 Z " fill="#FF2987" transform="translate(337,255)"/>
<path d="M0 0 C2.33464851 2.29456871 2.41613065 3.49224101 2.4453125 6.7265625 C2.27008449 10.60418873 2.15312364 11.43918412 -0.6171875 14.3515625 C-4.70839342 16.00239998 -8.73032636 17.25518605 -13.1796875 16.7890625 C-14.92578125 15.5 -14.92578125 15.5 -16.1796875 13.7890625 C-16.76664213 8.60429664 -16.02787536 5.16306528 -13.1796875 0.7890625 C-9.41399872 -2.16969297 -4.14031446 -2.3001747 0 0 Z " fill="#FF318B" transform="translate(565.1796875,192.2109375)"/>
<path d="M0 0 C3.375 1.6875 3.375 1.6875 6 4 C6.625 6.5625 6.625 6.5625 6 9 C3.7852664 11.47027978 2.34378365 11.94879818 -0.9375 12.4375 C-4.80632104 11.88481128 -6.39924487 10.90672632 -9 8 C-9.5 4.875 -9.5 4.875 -9 2 C-5.46569344 -0.35620437 -4.16428713 -0.48991613 0 0 Z " fill="#FF348D" transform="translate(100,264)"/>
<path d="M0 0 C1.1304993 3.39149791 1.01175073 6.47934509 0.83984375 10 C1.0304884 12.38073319 1.82754677 13.9401606 3 16 C1.78763672 16.48919922 1.78763672 16.48919922 0.55078125 16.98828125 C-0.51785156 17.42527344 -1.58648437 17.86226562 -2.6875 18.3125 C-3.74324219 18.74175781 -4.79898438 19.17101562 -5.88671875 19.61328125 C-9.01546996 20.92046793 -9.01546996 20.92046793 -11.76953125 22.73046875 C-12.50558594 23.14941406 -13.24164063 23.56835938 -14 24 C-14.66 23.67 -15.32 23.34 -16 23 C-14.58653438 21.55935235 -13.16908789 20.12260985 -11.75 18.6875 C-10.96109375 17.88699219 -10.1721875 17.08648437 -9.359375 16.26171875 C-7 14 -7 14 -4.77734375 12.4921875 C-2.51361004 10.59164623 -2.2914968 9.31622335 -1.8125 6.4375 C-1.05063291 2.10126582 -1.05063291 2.10126582 0 0 Z " fill="#FEDFED" transform="translate(146,98)"/>
<path d="M0 0 C1.1304993 3.39149791 1.01175073 6.47934509 0.83984375 10 C0.90994786 12.44388084 0.90994786 12.44388084 3 16 C-0.3 17.32 -3.6 18.64 -7 20 C-5 16 -5 16 -3.4140625 14.59765625 C-1.39024531 12.31107827 -1.527125 10.44397045 -1.375 7.4375 C-1.08071749 2.16143498 -1.08071749 2.16143498 0 0 Z " fill="#FEB2CF" transform="translate(146,98)"/>
<path d="M0 0 C0.66 0.33 1.32 0.66 2 1 C-2.60136502 6.53601728 -7.46398272 11.39863498 -13 16 C-13 13 -13 13 -11.80664062 11.46606445 C-11.26201172 10.937146 -10.71738281 10.40822754 -10.15625 9.86328125 C-9.56972656 9.28642578 -8.98320313 8.70957031 -8.37890625 8.11523438 C-7.75886719 7.52033203 -7.13882813 6.92542969 -6.5 6.3125 C-5.87996094 5.70599609 -5.25992188 5.09949219 -4.62109375 4.47460938 C-3.08735293 2.97626257 -1.54451802 1.48723507 0 0 Z " fill="#FE6C99" transform="translate(48,176)"/>
<path d="M0 0 C2.64 0.33 5.28 0.66 8 1 C7.1875 2.9375 7.1875 2.9375 6 5 C5.01 5.33 4.02 5.66 3 6 C3 5.34 3 4.68 3 4 C-1.455 4.495 -1.455 4.495 -6 5 C-4 3.66666667 -2 2.33333333 0 1 C0 0.67 0 0.34 0 0 Z " fill="#FF4681" transform="translate(148,112)"/>
<path d="M0 0 C0.66 0.33 1.32 0.66 2 1 C-1.95825209 5.82485166 -5.59160025 9.83410746 -11 13 C-9.46356148 9.31930113 -7.21849055 7.01224796 -4.375 4.25 C-3.55773437 3.45078125 -2.74046875 2.6515625 -1.8984375 1.828125 C-0.95871094 0.92320313 -0.95871094 0.92320313 0 0 Z " fill="#FE6E9A" transform="translate(381,12)"/>
<path d="M0 0 C0.66 0.33 1.32 0.66 2 1 C-1.30015998 5.13937592 -4.17324411 8.58662205 -9 11 C-7.59155282 7.78475695 -5.89655214 5.67816132 -3.375 3.25 C-2.74335938 2.63640625 -2.11171875 2.0228125 -1.4609375 1.390625 C-0.73777344 0.70226563 -0.73777344 0.70226563 0 0 Z " fill="#FE8DAF" transform="translate(180,36)"/>
</svg>
