<?xml version="1.0" encoding="UTF-8"?>
<svg version="1.1" xmlns="http://www.w3.org/2000/svg" width="700" height="400">
<path d="M0 0 C0.94101562 0.48726562 1.88203125 0.97453125 2.8515625 1.4765625 C4.17027344 2.14558594 4.17027344 2.14558594 5.515625 2.828125 C12.11130081 6.48331376 17.4367342 11.27601964 22.8515625 16.4765625 C23.75003906 17.30027344 24.64851563 18.12398437 25.57421875 18.97265625 C30.80183573 23.92087879 35.16351899 28.94842021 39.1640625 34.9140625 C39.74027344 35.77185303 39.74027344 35.77185303 40.328125 36.64697266 C43.99230281 42.33054055 46.89677312 48.40293354 49.8515625 54.4765625 C54.34914047 54.82080158 58.84834193 55.09244862 63.3515625 55.3515625 C64.62 55.44953125 65.8884375 55.5475 67.1953125 55.6484375 C75.36564021 56.15763744 75.36564021 56.15763744 82.453125 52.6015625 C83.58965534 51.56395352 84.72304086 50.52287627 85.8515625 49.4765625 C99.43271477 43.03058276 113.92552039 47.6478429 127.3125 52.34741211 C132.36537259 54.17187383 137.39240385 56.06265983 142.4128418 57.97436523 C145.51294711 59.15412417 148.61821545 60.31933648 151.72460938 61.48242188 C197.07129255 78.55336606 197.07129255 78.55336606 211.8515625 91.4765625 C212.46644531 92.00765625 213.08132813 92.53875 213.71484375 93.0859375 C227.64257821 106.02112077 239.00871492 127.63100068 239.95996094 146.64306641 C240.79551322 180.52402659 232.67518732 212.72163784 210.8515625 239.4765625 C210.1090625 240.41113281 209.3665625 241.34570312 208.6015625 242.30859375 C197.80842413 255.05251896 183.38973363 264.49912431 168.8515625 272.4765625 C168.00319824 272.94449219 167.15483398 273.41242188 166.28076172 273.89453125 C163.41803242 275.46105377 160.54372241 277.00390189 157.6640625 278.5390625 C156.79313965 279.00965088 155.9222168 279.48023926 155.02490234 279.96508789 C137.94873292 288.90222024 119.36242428 294.9667069 101.2265625 301.3515625 C100.10751526 301.74563293 98.98846802 302.13970337 97.83551025 302.54571533 C36.48453283 324.08856543 -26.89510675 337.93676667 -91.1484375 347.4765625 C-92.375625 347.66089844 -93.6028125 347.84523438 -94.8671875 348.03515625 C-127.87364145 352.92949562 -161.79659105 354.08342924 -195.1484375 353.4765625 C-196.10717773 353.46399414 -197.06591797 353.45142578 -198.05371094 353.43847656 C-231.51977576 352.9349957 -266.34346035 351.43133097 -299.1484375 344.4765625 C-300.18303101 344.25743195 -300.18303101 344.25743195 -301.23852539 344.03387451 C-388.49583366 325.45546826 -388.49583366 325.45546826 -405.3671875 300.1484375 C-414.09070253 285.75393758 -418.51464874 272.28395442 -418.46411133 255.54296875 C-418.46097446 253.37708038 -418.48438227 251.21259298 -418.50976562 249.046875 C-418.63901274 220.82933115 -406.27159245 196.88528023 -386.94116211 176.96948242 C-381.50905962 171.49891209 -375.89206228 166.38137129 -369.83203125 161.60546875 C-367.01134275 159.36780465 -364.30808084 157.02026613 -361.5859375 154.6640625 C-344.90240167 140.76826402 -325.39180364 129.3978933 -306.3359375 119.1015625 C-300.29329578 115.83055919 -294.94087631 112.48140857 -290.1484375 107.4765625 C-289.43953369 106.88016968 -289.43953369 106.88016968 -288.71630859 106.27172852 C-286.57746953 103.82282107 -285.76738039 101.33299832 -284.65234375 98.28125 C-284.17791249 97.00676005 -283.70303991 95.73243432 -283.2277832 94.45825195 C-282.98097809 93.78847321 -282.73417297 93.11869446 -282.47988892 92.42861938 C-267.07506392 50.81780086 -267.07506392 50.81780086 -254.1484375 36.4765625 C-253.50648438 35.73921875 -252.86453125 35.001875 -252.203125 34.2421875 C-243.83930986 25.23500196 -231.42125587 17.26525908 -218.93359375 16.203125 C-205.32562819 15.83186886 -194.7711902 19.78689305 -184.1484375 28.4765625 C-183.49746094 29.0025 -182.84648437 29.5284375 -182.17578125 30.0703125 C-172.14068438 39.1369298 -163.70898272 53.18483096 -158.1484375 65.4765625 C-158.1484375 66.1365625 -158.1484375 66.7965625 -158.1484375 67.4765625 C-156.90964844 67.17621094 -155.67085938 66.87585938 -154.39453125 66.56640625 C-144.92439855 64.67371142 -135.16903962 64.46863802 -125.54956055 63.87475586 C-115.88856783 63.26932771 -106.25746842 62.5309136 -96.6640625 61.21484375 C-95.49358116 61.07702232 -95.49358116 61.07702232 -94.29945374 60.93641663 C-88.90713606 60.12473095 -86.36968778 58.46729907 -82.8359375 54.1015625 C-81.5380222 52.34707928 -81.5380222 52.34707928 -80.6015625 50.6171875 C-77.63271265 45.55858886 -74.34878232 40.72387076 -71.0859375 35.8515625 C-70.48185059 34.93729492 -69.87776367 34.02302734 -69.25537109 33.08105469 C-64.90652329 26.51321294 -60.45273111 20.31883607 -55.1484375 14.4765625 C-54.30023438 13.52394531 -53.45203125 12.57132813 -52.578125 11.58984375 C-38.71244225 -3.43941022 -18.97980776 -8.60097617 0 0 Z " fill="#FF004E" transform="translate(440.1484375,29.5234375)"/>
<path d="M0 0 C0.94101562 0.48726562 1.88203125 0.97453125 2.8515625 1.4765625 C4.17027344 2.14558594 4.17027344 2.14558594 5.515625 2.828125 C12.11130081 6.48331376 17.4367342 11.27601964 22.8515625 16.4765625 C23.75003906 17.30027344 24.64851563 18.12398437 25.57421875 18.97265625 C30.80183573 23.92087879 35.16351899 28.94842021 39.1640625 34.9140625 C39.74027344 35.77185303 39.74027344 35.77185303 40.328125 36.64697266 C43.99230281 42.33054055 46.89677312 48.40293354 49.8515625 54.4765625 C54.34914047 54.82080158 58.84834193 55.09244862 63.3515625 55.3515625 C64.62 55.44953125 65.8884375 55.5475 67.1953125 55.6484375 C75.36564021 56.15763744 75.36564021 56.15763744 82.453125 52.6015625 C83.58965534 51.56395352 84.72304086 50.52287627 85.8515625 49.4765625 C99.43271477 43.03058276 113.92552039 47.6478429 127.3125 52.34741211 C132.36537259 54.17187383 137.39240385 56.06265983 142.4128418 57.97436523 C145.51294711 59.15412417 148.61821545 60.31933648 151.72460938 61.48242188 C197.07129255 78.55336606 197.07129255 78.55336606 211.8515625 91.4765625 C212.46644531 92.00765625 213.08132813 92.53875 213.71484375 93.0859375 C227.64257821 106.02112077 239.00871492 127.63100068 239.95996094 146.64306641 C240.79551322 180.52402659 232.67518732 212.72163784 210.8515625 239.4765625 C210.1090625 240.41113281 209.3665625 241.34570312 208.6015625 242.30859375 C197.80842413 255.05251896 183.38973363 264.49912431 168.8515625 272.4765625 C168.00319824 272.94449219 167.15483398 273.41242188 166.28076172 273.89453125 C163.41803242 275.46105377 160.54372241 277.00390189 157.6640625 278.5390625 C156.79313965 279.00965088 155.9222168 279.48023926 155.02490234 279.96508789 C137.94873292 288.90222024 119.36242428 294.9667069 101.2265625 301.3515625 C100.10751526 301.74563293 98.98846802 302.13970337 97.83551025 302.54571533 C36.48453283 324.08856543 -26.89510675 337.93676667 -91.1484375 347.4765625 C-92.375625 347.66089844 -93.6028125 347.84523438 -94.8671875 348.03515625 C-127.87364145 352.92949562 -161.79659105 354.08342924 -195.1484375 353.4765625 C-196.10717773 353.46399414 -197.06591797 353.45142578 -198.05371094 353.43847656 C-231.51977576 352.9349957 -266.34346035 351.43133097 -299.1484375 344.4765625 C-300.18303101 344.25743195 -300.18303101 344.25743195 -301.23852539 344.03387451 C-388.49583366 325.45546826 -388.49583366 325.45546826 -405.3671875 300.1484375 C-414.09070253 285.75393758 -418.51464874 272.28395442 -418.46411133 255.54296875 C-418.46097446 253.37708038 -418.48438227 251.21259298 -418.50976562 249.046875 C-418.63901274 220.82933115 -406.27159245 196.88528023 -386.94116211 176.96948242 C-381.50905962 171.49891209 -375.89206228 166.38137129 -369.83203125 161.60546875 C-367.01134275 159.36780465 -364.30808084 157.02026613 -361.5859375 154.6640625 C-344.90240167 140.76826402 -325.39180364 129.3978933 -306.3359375 119.1015625 C-300.29329578 115.83055919 -294.94087631 112.48140857 -290.1484375 107.4765625 C-289.43953369 106.88016968 -289.43953369 106.88016968 -288.71630859 106.27172852 C-286.57746953 103.82282107 -285.76738039 101.33299832 -284.65234375 98.28125 C-284.17791249 97.00676005 -283.70303991 95.73243432 -283.2277832 94.45825195 C-282.98097809 93.78847321 -282.73417297 93.11869446 -282.47988892 92.42861938 C-267.07506392 50.81780086 -267.07506392 50.81780086 -254.1484375 36.4765625 C-253.50648438 35.73921875 -252.86453125 35.001875 -252.203125 34.2421875 C-243.83930986 25.23500196 -231.42125587 17.26525908 -218.93359375 16.203125 C-205.32562819 15.83186886 -194.7711902 19.78689305 -184.1484375 28.4765625 C-183.49746094 29.0025 -182.84648437 29.5284375 -182.17578125 30.0703125 C-172.14068438 39.1369298 -163.70898272 53.18483096 -158.1484375 65.4765625 C-158.1484375 66.1365625 -158.1484375 66.7965625 -158.1484375 67.4765625 C-156.90964844 67.17621094 -155.67085938 66.87585938 -154.39453125 66.56640625 C-144.92439855 64.67371142 -135.16903962 64.46863802 -125.54956055 63.87475586 C-115.88856783 63.26932771 -106.25746842 62.5309136 -96.6640625 61.21484375 C-95.49358116 61.07702232 -95.49358116 61.07702232 -94.29945374 60.93641663 C-88.90713606 60.12473095 -86.36968778 58.46729907 -82.8359375 54.1015625 C-81.5380222 52.34707928 -81.5380222 52.34707928 -80.6015625 50.6171875 C-77.63271265 45.55858886 -74.34878232 40.72387076 -71.0859375 35.8515625 C-70.48185059 34.93729492 -69.87776367 34.02302734 -69.25537109 33.08105469 C-64.90652329 26.51321294 -60.45273111 20.31883607 -55.1484375 14.4765625 C-54.30023438 13.52394531 -53.45203125 12.57132813 -52.578125 11.58984375 C-38.71244225 -3.43941022 -18.97980776 -8.60097617 0 0 Z M-52.83520508 38.48339844 C-56.3295848 43.35356654 -59.70753016 48.29026132 -63.00317383 53.296875 C-76.47262162 73.75863079 -76.47262162 73.75863079 -85.08370972 75.97457886 C-87.29384001 76.40038854 -89.50287408 76.75193971 -91.73046875 77.07421875 C-92.5572261 77.19902115 -93.38398346 77.32382355 -94.23579407 77.45240784 C-104.59500004 78.93651751 -115.0261464 79.487389 -125.46801758 80.05786133 C-139.39653187 80.83821013 -151.89014427 82.94652956 -165.1484375 87.4765625 C-165.48987793 86.8280835 -165.83131836 86.17960449 -166.18310547 85.51147461 C-181.28031011 53.91377578 -181.28031011 53.91377578 -208.1484375 33.4765625 C-215.68720803 32.31415989 -222.52208107 32.52631802 -229 36.80078125 C-247.44375727 51.18691192 -256.13885543 69.95448488 -264.7109375 91.1640625 C-264.97659515 91.81458588 -265.24225281 92.46510925 -265.51596069 93.13534546 C-269.00823064 101.33263968 -269.00823064 101.33263968 -270.6484375 110.01953125 C-271.29005535 114.45571717 -273.27535594 116.3666681 -276.5859375 119.1015625 C-277.13306396 119.57464844 -277.68019043 120.04773438 -278.24389648 120.53515625 C-282.90165197 124.47117311 -287.79912416 127.55748551 -293.1484375 130.4765625 C-296.13613185 132.17012975 -299.11171878 133.88446004 -302.0859375 135.6015625 C-302.90247803 136.07279541 -303.71901855 136.54402832 -304.56030273 137.02954102 C-324.5366876 148.62115989 -343.82608811 161.15115956 -361.1484375 176.4765625 C-362.43621094 177.59804688 -362.43621094 177.59804688 -363.75 178.7421875 C-366.25255206 180.950789 -368.70872737 183.19874671 -371.1484375 185.4765625 C-371.62667969 185.92080566 -372.10492188 186.36504883 -372.59765625 186.82275391 C-388.31052843 201.54094876 -401.22295536 220.6351284 -402.25854492 242.8371582 C-402.71030816 263.53630182 -400.52149683 281.07665146 -386.4375 297.30859375 C-358.82323174 323.46203895 -298.22569873 330.0729426 -261.64941406 333.16894531 C-258.51989254 333.44392419 -255.39744285 333.76190054 -252.27348328 334.0933075 C-188.45048836 340.74988678 -122.1025322 337.71654283 -59.1484375 325.4765625 C-57.53044552 325.17827768 -55.9120384 324.88222253 -54.29296875 324.58984375 C-28.52648667 319.86343016 -2.97794409 314.01894812 22.4765625 307.8515625 C23.40807129 307.62790009 24.33958008 307.40423767 25.29931641 307.17379761 C37.99976773 304.11625554 50.45601932 300.5993856 62.8515625 296.4765625 C63.59887634 296.22876038 64.34619019 295.98095825 65.1161499 295.72564697 C70.4131046 293.96373041 75.69724804 292.16557942 80.9765625 290.3515625 C81.783284 290.0744342 82.59000549 289.79730591 83.4211731 289.51177979 C88.42907524 287.78912951 93.43354833 286.05678489 98.43548584 284.31689453 C100.01469014 283.76763383 101.59414758 283.21910022 103.17388916 282.67138672 C145.41007781 268.02096875 190.26231956 250.03468877 211.03173828 207.63769531 C218.75865152 191.32662178 223.3908045 175.60738188 223.2890625 157.4140625 C223.30904297 156.14240234 223.32902344 154.87074219 223.34960938 153.56054688 C223.34528821 145.13860442 222.0646891 138.25606665 218.8515625 130.4765625 C218.38234375 129.33960938 217.913125 128.20265625 217.4296875 127.03125 C213.99512738 120.10151988 209.99768367 114.24763956 204.8515625 108.4765625 C204.22378906 107.76628906 203.59601562 107.05601562 202.94921875 106.32421875 C187.67099716 90.04619534 163.43972653 84.09075432 143.10009766 76.48803711 C135.45041895 73.6250268 127.84266605 70.71878377 120.32983398 67.5078125 C112.0736852 64.07229162 102.32139435 60.88419837 93.5703125 64.390625 C91.57061277 65.66092606 90.23737322 66.54808804 88.8515625 68.4765625 C88.48208554 70.47020186 88.14576551 72.47043297 87.8515625 74.4765625 C87.13427979 74.39092041 86.41699707 74.30527832 85.67797852 74.21704102 C68.73315904 72.22297843 51.90964481 70.8838861 34.8515625 70.4765625 C34.89216797 69.91316162 34.93277344 69.34976074 34.97460938 68.76928711 C35.21603453 62.89686667 34.29775659 59.08388762 31.3515625 54.0390625 C30.98554932 53.39001953 30.61953613 52.74097656 30.24243164 52.07226562 C25.10162792 43.17934856 18.50844877 35.96826789 11.3515625 28.6640625 C10.73466553 28.02919922 10.11776855 27.39433594 9.48217773 26.74023438 C1.41759549 18.6916216 -8.67414481 12.49605864 -20.3359375 11.9765625 C-35.36915225 12.69016447 -44.84499475 27.47780687 -52.83520508 38.48339844 Z " fill="#FFFDFD" transform="translate(440.1484375,29.5234375)"/>
<path d="M0 0 C3.29135773 3.06724659 5.62932607 6.21297004 8.05078125 9.9765625 C8.48382568 10.63970459 8.91687012 11.30284668 9.36303711 11.98608398 C16.05633575 22.41186597 19.08659398 31.79855892 17.62890625 44.265625 C16.31616866 48.86020657 12.97415976 51.41228243 8.92578125 53.7265625 C3.42752926 54.96133943 -0.63945179 54.561336 -5.51171875 51.7265625 C-11.06630794 45.22362881 -12.39781314 39.52901834 -13.5234375 31.12109375 C-14.56539508 24.69938355 -15.96157291 18.13263137 -20.32421875 13.1640625 C-28.78057916 8.74369229 -35.71432007 8.21266429 -45.19921875 8.2890625 C-46.49496826 8.29663574 -47.79071777 8.30420898 -49.12573242 8.31201172 C-57.98832006 8.46503642 -65.95042137 8.87202801 -74.07421875 12.7265625 C-74.85023438 13.09265625 -75.62625 13.45875 -76.42578125 13.8359375 C-85.92260743 19.59805675 -89.81001023 33.38084925 -92.40625 43.5390625 C-93.79329452 50.15794163 -94.21045653 54.44019233 -90.57421875 60.3515625 C-86.12382827 66.34489496 -80.69372477 72.40780184 -73.07421875 73.7265625 C-66.38496042 74.60161083 -61.41178769 74.51271167 -55.69921875 70.6640625 C-50.50144287 66.50416779 -45.98201772 62.71695912 -44.01171875 56.2265625 C-44.08780622 51.96566434 -44.94678447 49.41411525 -47.07421875 45.7265625 C-49.39068279 43.54636105 -50.95894842 42.8331849 -54.1171875 42.53125 C-59.05790252 42.68431862 -61.59149482 43.84852038 -65.13671875 47.2890625 C-67.85364599 49.92464461 -69.48370771 51.25788645 -73.32421875 51.4140625 C-77.40142548 50.6665746 -78.69737138 50.05414882 -81.07421875 46.7265625 C-82.92411397 41.17687684 -83.03935916 35.69396411 -80.44921875 30.4140625 C-75.2720175 24.55565056 -69.75613233 20.51265556 -61.88427734 19.42358398 C-59.62600176 19.2902605 -57.39863858 19.25844389 -55.13671875 19.2890625 C-53.94876709 19.30151001 -53.94876709 19.30151001 -52.73681641 19.31420898 C-43.54557137 19.58030623 -37.55401657 22.53826315 -30.859375 28.8203125 C-23.67802304 36.48880212 -20.31722583 46.62018401 -20.65234375 57.109375 C-21.94950308 65.15656714 -25.71587048 72.94437115 -31.90625 78.31640625 C-45.27515422 87.4135896 -59.68150174 91.37252039 -75.76171875 89.1015625 C-87.91679232 86.5157509 -96.62205734 77.60742131 -104.1015625 68.16796875 C-110.10781133 58.88301468 -109.32573301 48.23714657 -107.11328125 37.83203125 C-103.29740757 21.7885224 -98.02442367 6.61500931 -84.07421875 -3.2734375 C-59.66883429 -17.14953436 -22.86205859 -16.9068845 0 0 Z " fill="#FFC1DC" transform="translate(394.07421875,197.2734375)"/>
<path d="M0 0 C0.66 0.33 1.32 0.66 2 1 C-1.63 4.63 -5.26 8.26 -9 12 C-9.66 11.67 -10.32 11.34 -11 11 C-7.6189962 6.86378916 -4.33409466 3.18683431 0 0 Z " fill="#FF2366" transform="translate(407,46)"/>
<path d="M0 0 C-1.44077046 3.36179774 -3.24750021 5.59156268 -6 8 C-6.66 8 -7.32 8 -8 8 C-6.48291727 4.46014029 -4.24676932 0 0 0 Z " fill="#FFA1C5" transform="translate(322,221)"/>
</svg>
